<?xml version="1.0" encoding="UTF-8" standalone="no"?>
<!DOCTYPE svg PUBLIC "-//W3C//DTD SVG 1.1//EN" "http://www.w3.org/Graphics/SVG/1.1/DTD/svg11.dtd">
<svg width="100%" height="100%" viewBox="0 0 2963 779" version="1.1" xmlns="http://www.w3.org/2000/svg" xmlns:xlink="http://www.w3.org/1999/xlink" xml:space="preserve" xmlns:serif="http://www.serif.com/" style="fill-rule:evenodd;clip-rule:evenodd;stroke-linejoin:round;stroke-miterlimit:2;">
    <g id="Layer-1" serif:id="Layer 1">
        <path d="M2827.73,166.124C2831.56,165.168 2963.22,168.952 2962.76,159.574C2962.29,150.202 2837.34,147.874 2830.61,147.874C2823.87,147.874 2823.87,136.346 2826.76,131.535C2829.64,126.735 2960.09,137.002 2959.79,126.735C2959.47,116.452 2829.64,109.435 2797.94,111.368C2766.22,113.268 2757.58,124.796 2746.99,136.346C2744.61,138.935 2742.61,141.229 2740.74,143.302L2518.02,143.302L2486.4,444.941L2548.9,444.941L2555.36,435.602C2571.92,411.691 2593.14,392.446 2618.42,378.418C2643.4,364.568 2670.3,357.552 2698.39,357.552C2746.88,357.552 2787.11,374.524 2821.33,409.435C2855.67,444.491 2872.36,485.313 2872.36,534.235C2872.36,583.118 2855.7,623.652 2821.43,658.152C2787.19,692.613 2746.95,709.363 2698.39,709.363C2660.68,709.363 2625.82,697.329 2594.78,673.613C2576.92,659.957 2562.13,643.907 2550.82,625.918L2546.52,619.068L2540.02,623.879C2532.18,629.674 2525.04,634.196 2518.12,638.574C2510.79,643.213 2503.88,647.591 2496.56,653.163L2491.04,657.352L2494.78,663.185C2509.27,685.746 2528.2,706.046 2551.05,723.507C2595.19,757.252 2644.76,774.357 2698.39,774.357C2764.84,774.357 2822.39,750.791 2869.45,704.307C2916.57,657.741 2940.46,600.524 2940.46,534.235C2940.46,468.024 2916.74,410.579 2869.97,363.507C2823.14,316.429 2765.42,292.552 2698.39,292.552C2664.06,292.552 2630.97,299.402 2600.01,312.913C2590.47,317.085 2579.2,324.079 2566.39,333.768L2579.48,209.079L2743.27,209.079C2744.42,210.374 2745.65,211.746 2746.99,213.207C2757.58,224.746 2766.22,236.274 2797.94,238.196C2829.64,240.124 2961.5,232.152 2959.79,222.813C2958.07,213.479 2829.64,222.813 2826.76,218.024C2823.87,213.207 2823.87,201.674 2830.61,201.674C2837.34,201.674 2962.55,199.602 2961.71,190.129C2960.88,180.668 2831.56,184.379 2827.73,183.435C2823.87,182.452 2824.21,174.502 2824.21,174.502C2824.21,174.502 2823.87,167.091 2827.73,166.124" style="fill:rgb(181,190,0);fill-rule:nonzero;"/>
        <path d="M2570.97,653.901C2550.83,626.473 2545.97,629.723 2548.28,595.756C2550.33,566.067 2535.58,537.434 2523.47,521.762C2490.13,478.639 2429.66,472.984 2404.44,492.473C2379.22,511.967 2369.48,571.917 2402.81,615.039C2414.93,630.723 2438.92,652.189 2468.18,657.689C2501.63,663.995 2496.81,671.439 2520.27,695.217" style="fill:rgb(181,190,0);fill-rule:nonzero;"/>
        <path d="M2869.45,704.307C2877.37,696.479 2884.57,688.329 2891.18,679.907C2833.23,704.963 2783.01,709.285 2742.79,704.091C2728.8,707.602 2714.03,709.363 2698.39,709.363C2660.68,709.363 2625.82,697.329 2594.79,673.613C2582.59,664.285 2571.94,653.885 2562.78,642.529C2572.05,681.246 2608.9,739.785 2648.45,769.157C2664.66,772.607 2681.32,774.357 2698.39,774.357C2764.84,774.357 2822.39,750.791 2869.45,704.307" style="fill:rgb(120,154,11);fill-rule:nonzero;"/>
        <path d="M2548.9,444.941L2555.35,435.602C2571.92,411.691 2593.14,392.446 2618.43,378.418C2640.79,366.018 2664.7,359.135 2689.62,357.824C2726.73,336.713 2768.74,321.441 2819.21,324.063C2783.35,303.163 2742.94,292.552 2698.39,292.552C2664.06,292.552 2630.96,299.402 2600.01,312.913C2590.46,317.085 2579.2,324.079 2566.39,333.768L2579.49,209.079L2714.54,209.079C2687.14,186.296 2656.21,160.896 2612.75,143.302L2518.01,143.302L2486.4,444.941L2548.9,444.941Z" style="fill:rgb(120,154,11);fill-rule:nonzero;"/>
        <rect x="1473.15" y="280.642" width="67.983" height="456.772" style="fill:rgb(54,58,54);"/>
        <path d="M1507.14,127.734C1478.7,127.734 1461.04,144.684 1461.04,171.978C1461.04,199.267 1478.7,216.223 1507.14,216.223C1535.58,216.223 1553.25,199.267 1553.25,171.978C1553.25,144.684 1535.58,127.734 1507.14,127.734" style="fill:rgb(54,58,54);fill-rule:nonzero;"/>
        <path d="M1732.44,649.767C1710.84,628.428 1700.34,602.067 1700.34,569.161L1700.34,0L1632.35,0L1632.35,569.161C1632.35,620.389 1650.04,663.15 1684.91,696.261C1719.51,729.128 1761.88,745.789 1810.87,745.789L1829.94,745.789L1829.94,681.55L1810.87,681.55C1779.74,681.55 1754.08,671.156 1732.44,649.767" style="fill:rgb(54,58,54);fill-rule:nonzero;"/>
        <path d="M396.361,590.091C388.111,606.657 377.033,622.124 363.439,636.063C329.583,670.774 289.983,687.646 242.372,687.646C194.678,687.646 154.556,670.713 119.717,635.891C92.239,608.407 75.95,577.707 70.283,542.696L324.006,542.696L324.006,488.046L69.733,488.046C74.889,451.502 91.406,419.402 119.822,390.513C154.656,355.135 194.594,337.935 241.911,337.935C289.183,337.935 328.789,354.963 362.978,389.985C373.572,400.852 382.867,412.991 390.594,426.063L396.133,435.435L471.917,435.435L458.106,407.829C446.683,384.985 431.022,363.541 411.567,344.074C364.839,297.363 307.6,273.674 241.433,273.674C175.283,273.674 117.906,297.346 70.889,344.029C23.85,390.752 0,446.896 0,510.924C0,574.824 23.45,631.513 69.689,679.407C116.083,727.496 172.461,751.879 237.244,751.879L245.633,751.879C311.044,751.879 367.439,727.641 413.256,679.829C434.717,657.424 451.4,632.635 462.839,606.152L474.344,579.518L401.622,579.518L396.361,590.091Z" style="fill:rgb(54,58,54);fill-rule:nonzero;"/>
        <path d="M866.703,283.941L702.453,627.196L537.348,283.941L462.437,283.941L699.737,778.879L935.992,283.941L866.703,283.941Z" style="fill:rgb(54,58,54);fill-rule:nonzero;"/>
        <path d="M1334.64,513.264C1334.64,561.059 1318.11,601.226 1284.11,636.064C1250.26,670.776 1210.66,687.648 1163.05,687.648C1115.35,687.648 1075.23,670.714 1040.39,635.887C1005.57,601.07 988.639,561.109 988.639,513.714C988.639,466.281 1005.61,425.981 1040.51,390.509C1075.33,355.131 1115.26,337.937 1162.58,337.937C1209.85,337.937 1249.46,354.964 1283.65,389.992C1317.96,425.153 1334.64,465.481 1334.64,513.264M1162.1,273.676C1095.94,273.676 1038.57,297.348 991.573,344.031C944.528,390.748 920.673,446.898 920.673,510.92C920.673,574.826 944.123,631.509 990.362,679.403C1036.76,727.498 1093.14,751.881 1157.92,751.881L1166.3,751.881C1231.71,751.881 1288.1,727.642 1333.91,679.831C1379.5,632.237 1402.61,575.564 1402.61,511.387C1402.61,447.087 1378.93,390.798 1332.22,344.081C1285.52,297.364 1228.28,273.676 1162.1,273.676" style="fill:rgb(54,58,54);fill-rule:nonzero;"/>
        <path d="M2212.27,551.98C2212.27,669.597 2096.94,696.074 2056.54,696.074C1974.18,696.074 1914.4,649.73 1914.4,585.874C1914.4,503.536 2002.02,491.23 2054.25,491.23L2212.4,491.23L2212.27,551.98ZM2346.94,696.058C2332.39,690.652 2318.96,682.369 2307.02,671.413C2283.44,649.83 2271.98,623.263 2271.98,590.202L2271.98,485.269L2272.04,485.269L2272.04,469.347C2272.04,414.319 2251.78,366.147 2211.83,326.169C2171.86,286.202 2122.88,265.936 2066.25,265.936C2009.64,265.936 1960.54,286.186 1920.32,326.136C1913.38,333.024 1906.68,340.747 1899.83,349.73L1878.91,377.158L1953.93,376.73L1958.92,371.324C1959.63,370.552 1960.32,369.769 1961,368.986C1961.67,368.236 1962.32,367.48 1963.04,366.747C1992.59,336.708 2026.49,322.108 2066.65,322.108C2106.79,322.108 2140.4,336.563 2169.42,366.297C2188.7,386.058 2201.37,407.747 2207.77,431.908L2054.25,431.908C1931.37,431.908 1855.07,490.908 1855.07,585.874C1855.07,684.108 1939.8,755.413 2056.54,755.413C2091.45,755.413 2144.78,744.224 2189.73,712.852C2204.35,702.641 2220.04,688.841 2233.77,670.763C2242.18,685.286 2253.13,698.541 2266.64,710.447C2287.7,729.019 2311.86,742.191 2338.45,749.597L2355.92,754.458L2355.92,699.386L2346.94,696.058Z" style="fill:rgb(54,58,54);fill-rule:nonzero;"/>
        <path d="M1926.56,131.882C1926.56,131.882 1957.42,186.293 2014.05,211.248C2070.69,236.204 2131.67,222.248 2131.67,222.248C2131.67,222.248 2100.81,167.826 2044.17,142.882C1987.54,117.921 1926.56,131.882 1926.56,131.882" style="fill:rgb(181,190,0);fill-rule:nonzero;"/>
        <path d="M366.137,134.508C366.137,134.508 335.281,188.919 278.648,213.874C222.009,238.83 161.037,224.874 161.037,224.874C161.037,224.874 191.887,170.452 248.526,145.508C305.159,120.547 366.137,134.508 366.137,134.508" style="fill:rgb(181,190,0);fill-rule:nonzero;"/>
    </g>
</svg>
