<svg id="Layer_1" data-name="Layer 1" xmlns="http://www.w3.org/2000/svg" viewBox="0 0 205.4941 374.6802">
  <g>
    <path id="fullLogo" d="M82.6,133.9444l-4.2447,6.1446H74.96a9.5219,9.5219,0,0,1,4.0107-5.1848A18.1374,18.1374,0,0,1,82.6,133.9444Z" style="fill: #fff"/>
    <path id="fullLogo-2" data-name="fullLogo" d="M90.8682,39.0583c.8827-.1808,1.8366-.3769,2.85-.6005.6325-.7912,4.3594-5.2395,8.6116-6.0528-.1217-.07-.2422-.1431-.3636-.2206a28.4986,28.4986,0,0,0-17.7382,7.0288,4.5733,4.5733,0,0,0,.2313,1.7106C85.8649,40.0883,88.0007,39.645,90.8682,39.0583Z" style="fill: #fff"/>
    <path id="fullLogo-3" data-name="fullLogo" d="M84.1961,60.4228a24.3079,24.3079,0,0,0,9.9555-3.9921A38.7136,38.7136,0,0,1,98.41,46.824c-.43-2.31-2.0587-4.9814-4.5985-7.5512-.9868.2167-1.9189.4087-2.78.5853-2.9619.6061-5.1181,1.0517-6.3774,1.9068l-.0728.0874c-3.4126,4.0708-4.9643,7.9009-4.6281,11.3882C81.68,56.1213,83.6463,59.4818,84.1961,60.4228Z" style="fill: #fff"/>
    <path id="fullLogo-4" data-name="fullLogo" d="M83.5655,60.9621c-.4115-.7051-2.4476-4.1862-4.246-7.19-1.6779-.498-3.6133,1.5019-4.7337,3.0175a29.21,29.21,0,0,0-.3182,4.2923,28.8953,28.8953,0,0,0,3.3838,13.6009,29.9881,29.9881,0,0,0,2.8817,1.895,12.6278,12.6278,0,0,0,4.0552-2.63A23.8785,23.8785,0,0,1,83.5655,60.9621Z" style="fill: #fff"/>
    <path id="fullLogo-5" data-name="fullLogo" d="M99.1074,47.21a38.6775,38.6775,0,0,0-4.249,9.72l-.0089-.0023c-.0405.4337-.0559,3.6918,7.45,10.7172a55.385,55.385,0,0,0,12.0917-.9488A20.1671,20.1671,0,0,0,119.16,55.531l0-.0025a24.0979,24.0979,0,0,0-6.9684-9.3869,26.918,26.918,0,0,0-13.1207,1.0246Z" style="fill: #fff"/>
    <path id="fullLogo-6" data-name="fullLogo" d="M114.6117,37.0911a34.19,34.19,0,0,1-1.71,8.59A24.8265,24.8265,0,0,1,119.91,55.217c4.8288,1.2424,7.1414,1.0659,7.696.99a10.7917,10.7917,0,0,0,2.22-6.897,26.0537,26.0537,0,0,0-5.4141-8.3568,27.13,27.13,0,0,0-3.9662-3.3892,29.2532,29.2532,0,0,0-5.3307-.4624C114.9036,37.0979,114.742,37.0951,114.6117,37.0911Z" style="fill: #fff"/>
    <path id="fullLogo-7" data-name="fullLogo" d="M105.1953,32.4665c.0342.0088.1006.0206.1943.0381a24.7288,24.7288,0,0,1,9.01,3.8029l.0114-.0441c.0928.0137.3487.0156.7178.0215.8883.015,2.267.04,3.6678.1934a30.5309,30.5309,0,0,0-15.117-4.3039c.1049.0469.189.0832.2546.1106A5.9774,5.9774,0,0,1,105.1953,32.4665Z" style="fill: #fff"/>
    <path id="fullLogo-8" data-name="fullLogo" d="M129.0186,68.9029c-1.3767,3.6985-7.2432,6.3293-8.36,6.8a27.4109,27.4109,0,0,1-5.3093,8.7041,3.2592,3.2592,0,0,0,3.4464,1.1392,28.0984,28.0984,0,0,0,5.1106-4.1125A27.2414,27.2414,0,0,0,130.52,70.2239,6.8172,6.8172,0,0,0,129.0186,68.9029Z" style="fill: #fff"/>
    <path id="fullLogo-9" data-name="fullLogo" d="M128.3043,56.6387c.4821,1.1557,2.5849,6.69.979,11.4636a8.6542,8.6542,0,0,1,1.5035,1.1957,29.4847,29.4847,0,0,0,.9769-8.2,28.8534,28.8534,0,0,0-1.2386-9.8455A10.58,10.58,0,0,1,128.3043,56.6387Z" style="fill: #fff"/>
    <path id="fullLogo-10" data-name="fullLogo" d="M103.03,25.6257a35.457,35.457,0,1,0,35.4534,35.458A35.4568,35.4568,0,0,0,103.03,25.6257Zm22.0433,56.95a30.605,30.605,0,1,1-22.07-52.0508A31.31,31.31,0,0,1,125.59,39.822a28.6772,28.6772,0,0,1,7.8057,21.294A29.5171,29.5171,0,0,1,125.0732,82.5759Z" style="fill: #fff"/>
    <path id="fullLogo-11" data-name="fullLogo" d="M101.33,85.7678c-2.2115-1.3938-4.9937-6.3373-5.5529-7.36-.0132.0006-.0225.0032-.0369.0032-1.4412,0-8.3851-2.8394-10.6756-3.7924a13.28,13.28,0,0,1-4.1283,2.6781,20.9105,20.9105,0,0,0,.5716,2.953,28.67,28.67,0,0,0,16.7186,9.3509,10.7053,10.7053,0,0,0,3.1251-3.8049l-.0225-.0263Z" style="fill: #fff"/>
    <path id="fullLogo-12" data-name="fullLogo" d="M119.8987,75.4036a18.5663,18.5663,0,0,0-5.3638-7.9045,56.1688,56.1688,0,0,1-10.5056.9919c-.5113,0-1.0357-.0112-1.5636-.0272a56.5575,56.5575,0,0,1-6.0425,9.4217c.9648,1.7977,3.7705,6.4792,5.5875,7.3379l-.0482.102a3.4981,3.4981,0,0,1,.36.0825c4.8144,1.3077,8.9433.8458,12.2754-1.3779l0,0-.0063-.0065A26.9543,26.9543,0,0,0,119.8987,75.4036Z" style="fill: #fff"/>
    <path id="fullLogo-13" data-name="fullLogo" d="M153.0883,143.4155c10.167-2.8295,35.4483-17.6484,30.1136-45.5972a30.52,30.52,0,0,1-18.2056,23.1036s12.1876-11.7262,14.2772-24.39c1.2646-7.6644-.328-15.0869-2.8761-19.757-.1384,18.1584-13.9076,28.2445-13.9076,28.2445s13.9493-17.7666,4.2947-38.0313a41.3744,41.3744,0,0,0-8.1925-11.4745c9.2393,21.2371-3.2974,40.7115-3.2974,40.7115s6.6883-23.6343-2.2063-38.3586c-3.9157-6.4823-9.2843-12.4744-16.8076-15.4262,0,0,11.0731,8.69,11.0731,32.1313S136.0722,117.01,120.402,132.9741c-11.4216,11.6371-16.0787,20.34-17.6941,36.5977-.9044-19.7114-15.8153-25.6623-22.2969-24.42-5.8945,1.13-6.1068,5.27-5.014,6.1556A5.5838,5.5838,0,0,1,70.4,147.0212c-1.0311-4.3522,3.8389-15.2443,10.6717-18.9578C67.8343,113.143,58.704,95.6567,58.704,74.5714,58.704,51.13,69.7776,42.44,69.7776,42.44,62.2561,45.3911,56.8985,51.387,52.97,57.8663c-9.5016,15.6713-3.6037,36.2788-3.6037,36.2788S37.4572,77.3179,47.4669,55.5134a40.53,40.53,0,0,0-9.5338,14.6717c-6.8746,18.9,5.6349,34.8341,5.6349,34.8341S29.8006,94.9331,29.6605,76.7747a32.0454,32.0454,0,0,0-2.8756,19.757c2.089,12.664,14.2767,24.39,14.2767,24.39A30.5193,30.5193,0,0,1,22.857,97.8183C17.5223,125.7671,42.8031,140.586,52.97,143.4155c-11.5617,1.078-20.6164-5.9328-20.6136-5.9277,8.06,18.0871,23.6993,17.0322,41.6,23.0374a44.0392,44.0392,0,0,1,11.4818,5.6853A66.7794,66.7794,0,0,1,64.646,191.1232c12.1471-2.1856,22.2495-8.06,28.9645-12.9865a2.2575,2.2575,0,0,1,.9534-.2109,2.1469,2.1469,0,0,1,1.7616.8376l.0206.0037c3.0869,5.9636,3.7226,10.8114,5.6369,10.8114,1.4909,0,2.5581-5.9695,7.373-12.8286l5.4985,4.1777a3.5333,3.5333,0,0,0,4.0546.1076l17.5564-11.7892a.8162.8162,0,0,0-.5006-1.4947l-17.3435-.4092a49.217,49.217,0,0,1,13.4814-6.8169c17.8992-6.0052,33.5383-4.95,41.5991-23.0374C173.7041,137.4827,164.6489,144.4935,153.0883,143.4155Z" style="fill: #fff"/>
    <path id="fullLogo-14" data-name="fullLogo" d="M124.2872,247.522c-.2363-.1572-.4189-.1807-.5459-.0674a3.4151,3.4151,0,0,0-.2012,1.6152l-.0664,8.7481a10.6289,10.6289,0,0,0,.1084,2.0957,1.304,1.304,0,0,0,.5723.7656q.4644.3091.5967-.0449a8.5554,8.5554,0,0,0,.1445-2.0078l.0654-8.6084a7.4094,7.4094,0,0,0-.122-1.7617A1.2983,1.2983,0,0,0,124.2872,247.522Z" style="fill: #fff;fill-rule: evenodd"/>
    <path id="fullLogo-15" data-name="fullLogo" d="M148.8812,246.947,69.3529,193.3407a57.3792,57.3792,0,0,1-14.21,1.9115,33.6,33.6,0,0,0,7.7094-6.2935l-41.01-27.6429v47.0757l143.2841,96.2,7.6172-5.127s10.626-6.6411,10.626-17.267V222.91ZM43.6222,200.8887a6.029,6.029,0,0,1,.5683,1.4887,20.536,20.536,0,0,1,.0918,2.8462l-.0371,4.94-4.209-2.8076.0469-6.2247a5.8907,5.8907,0,0,0-.2061-2.01,3.083,3.083,0,0,0-1.1552-1.13l-.0635,8.4463L34.127,203.415l.1416-18.7324,3.2071,2.14a43.1875,43.1875,0,0,1,4.3418,3.1635,7.694,7.694,0,0,1,1.8408,2.5943,9.4926,9.4926,0,0,1,.6894,3.9658q-.016,2.187-.5273,2.6016t-1.998-.4258A8.525,8.525,0,0,1,43.6222,200.8887Zm10.4267,15.8154-7.8574-5.2412.1416-18.7324,7.5566,5.04-.0283,3.7485L50.836,199.502l-.0273,3.5522,2.832,1.8887-.0264,3.5635-2.832-1.8887-.0312,4.1191,3.3261,2.2188Zm10.5069,7.0093-6.8829-4.5918-2.4775-20.479,4.7793,3.188q.7749,8.296,1.0908,13.8911.3912-5.18.8184-9.1172l.3408-3.2734L67.004,206.52ZM78.51,221.9975l-.0245,3.2051q-.0219,2.8244-.1533,3.9151a2.38,2.38,0,0,1-.792,1.63,2.0559,2.0559,0,0,1-1.77.3183,7.4863,7.4863,0,0,1-2.5869-1.203,13.2162,13.2162,0,0,1-2.51-2.168,10.8214,10.8214,0,0,1-1.7812-2.67,8.2617,8.2617,0,0,1-.791-2.68q-.12-1.2437-.1-4.1372l.0244-3.2041q.0206-2.8227.1543-3.915a2.3781,2.3781,0,0,1,.79-1.63,2.061,2.061,0,0,1,1.7725-.3184,7.4985,7.4985,0,0,1,2.5879,1.2032,13.2351,13.2351,0,0,1,2.5088,2.1678,10.882,10.882,0,0,1,1.7822,2.671,8.2886,8.2886,0,0,1,.79,2.6787Q78.5314,219.1056,78.51,221.9975Zm9.1084,17.1007-7.2872-4.8614.1416-18.7329,4.5313,3.023-.1133,14.9843,2.7559,1.8379Zm11.916,1.7041a21.2281,21.2281,0,0,1-.1514,2.9043,1.9511,1.9511,0,0,1-.7783,1.2607,1.9882,1.9882,0,0,1-1.6836.26,7.4933,7.4933,0,0,1-2.4522-1.1651,13.9786,13.9786,0,0,1-2.7519-2.3926,10.9117,10.9117,0,0,1-1.7764-2.6386,7.4417,7.4417,0,0,1-.6846-2.3477q-.1-1.059-.0771-4.2305l.084-11.0839,4.5322,3.0234-.1064,14.0459a6.999,6.999,0,0,0,.1123,1.6494,1.1776,1.1776,0,0,0,.497.6758c.2871.1914.4737.1894.5577-.0068a6.3418,6.3418,0,0,0,.1377-1.6924l.1044-13.8037,4.5313,3.0224Zm11.4912-1.1495-2.6914-1.7959-.1133,14.9844-4.5313-3.0234.1133-14.9834-2.6806-1.7881.0283-3.7481,9.9033,6.6055Zm5.959,19.0342-4.5313-3.0234.1416-18.7324,4.5313,3.0234Zm12.4853-2.6953-.0244,3.2051q-.0219,2.8227-.1533,3.915a2.3719,2.3719,0,0,1-.792,1.6289,2.0541,2.0541,0,0,1-1.77.3193,7.509,7.509,0,0,1-2.5879-1.2031,13.2794,13.2794,0,0,1-2.51-2.1679,10.8632,10.8632,0,0,1-1.7812-2.6709,8.2748,8.2748,0,0,1-.7911-2.6787q-.12-1.2437-.0986-4.1368l.0244-3.2051q.0206-2.8227.1533-3.9151a2.3751,2.3751,0,0,1,.7911-1.6288,2.0567,2.0567,0,0,1,1.7724-.3183,7.4832,7.4832,0,0,1,2.5869,1.2021,13.2429,13.2429,0,0,1,2.5088,2.169,10.8356,10.8356,0,0,1,1.7822,2.6709,8.2583,8.2583,0,0,1,.79,2.6777Q129.4914,253.1,129.47,255.9917ZM141.41,274.98l-3.9716-2.6494-2.294-10.0879-.0644,8.5156-3.7891-2.5283.1416-18.7325,3.7891,2.5284,2.4775,10.1289.0635-8.4346,3.789,2.5273Zm10.2461-8.2246-3.1435-2.0957-.0274,3.5517,2.7989,1.8662-.0264,3.5645-2.7988-1.8672-.06,7.8682-4.5312-3.0235.1416-18.7314,7.6748,5.1191Zm12.1534,12.538-4.5323-3.0235.0244-3.2557a7.4352,7.4352,0,0,0-.1318-1.8693,1.49,1.49,0,0,0-.6377-.7792q-.5595-.3735-.7129-.0449a5.728,5.728,0,0,0-.165,1.75l-.0664,8.7a7.7353,7.7353,0,0,0,.1387,1.8838,1.5468,1.5468,0,0,0,.6738.8682c.3369.2245.56.2334.666.0244a6.0719,6.0719,0,0,0,.17-1.8566l.0176-2.3544,4.5322,3.0225-.0058.7305a12.471,12.471,0,0,1-.4131,3.87,1.7035,1.7035,0,0,1-1.7061,1.0049,5.8625,5.8625,0,0,1-3.23-1.2354,13.9831,13.9831,0,0,1-3.2774-2.9648,8.7643,8.7643,0,0,1-1.6943-3.2881,18.3773,18.3773,0,0,1-.39-4.4043l.042-5.4727a23.7834,23.7834,0,0,1,.1514-2.9521,1.9615,1.9615,0,0,1,2.5722-1.7256,7.4354,7.4354,0,0,1,2.6143,1.2031,13.5549,13.5549,0,0,1,3.2979,3.0352,9.3817,9.3817,0,0,1,1.6953,3.2168,16.3865,16.3865,0,0,1,.3808,4.1367Z" style="fill: #fff;fill-rule: evenodd"/>
    <path id="fullLogo-16" data-name="fullLogo" d="M73.3263,213.5282q-.3546-.2371-.545-.0677a3.42,3.42,0,0,0-.2011,1.6157l-.0664,8.7475a10.532,10.532,0,0,0,.1084,2.0957,1.2966,1.2966,0,0,0,.5722.7656q.4629.3091.5957-.0449a8.4717,8.4717,0,0,0,.1455-2.0078l.0655-8.6079a7.416,7.416,0,0,0-.1221-1.7622A1.3028,1.3028,0,0,0,73.3263,213.5282Z" style="fill: #fff;fill-rule: evenodd"/>
    <path id="fullLogo-17" data-name="fullLogo" d="M38.7755,190.91l-.0313,4.1655a2.2362,2.2362,0,0,0,1.0723.4888q.309-.0213.3184-1.2588l.0078-1.03a2.5693,2.5693,0,0,0-.2871-1.3657A3.6162,3.6162,0,0,0,38.7755,190.91Z" style="fill: #fff;fill-rule: evenodd"/>
    <path id="fullLogo-18" data-name="fullLogo" d="M23.92,293.0978l49.5329-34.6833-5.026-3.3486-46.38,32.4755A17.295,17.295,0,0,0,23.92,293.0978Z" style="fill: #fff;fill-rule: evenodd"/>
    <path id="fullLogo-19" data-name="fullLogo" d="M30.92,301.1675l52.0255-36.4286L77.92,261.39l-51.1621,35.824A29.0113,29.0113,0,0,0,30.92,301.1675Z" style="fill: #fff;fill-rule: evenodd"/>
    <polygon id="fullLogo-20" data-name="fullLogo" points="21.868 281.563 63.961 252.09 58.935 248.741 21.865 274.697 21.868 281.563" style="fill: #fff;fill-rule: evenodd"/>
    <polygon id="fullLogo-21" data-name="fullLogo" points="54.468 245.765 21.842 224.028 21.862 268.596 54.468 245.765" style="fill: #fff;fill-rule: evenodd"/>
    <polygon id="fullLogo-22" data-name="fullLogo" points="129.767 218.983 183.346 181.467 183.349 174.597 124.766 215.617 129.767 218.983" style="fill: #fff;fill-rule: evenodd"/>
    <polygon id="fullLogo-23" data-name="fullLogo" points="139.213 225.34 183.342 194.441 183.344 187.571 134.212 221.974 139.213 225.34" style="fill: #fff;fill-rule: evenodd"/>
    <polygon id="fullLogo-24" data-name="fullLogo" points="120.321 212.626 183.35 168.492 183.353 161.623 115.32 209.26 120.321 212.626" style="fill: #fff;fill-rule: evenodd"/>
    <polygon id="fullLogo-25" data-name="fullLogo" points="183.355 155.518 183.357 148.584 105.145 202.412 110.876 206.268 183.355 155.518" style="fill: #fff;fill-rule: evenodd"/>
    <polygon id="fullLogo-26" data-name="fullLogo" points="143.657 228.332 149.238 232.088 183.338 207.56 183.34 200.545 143.657 228.332" style="fill: #fff;fill-rule: evenodd"/>
    <polygon id="fullLogo-27" data-name="fullLogo" points="73.363 328.768 78.458 332.068 129.919 296.035 124.893 292.686 73.363 328.768" style="fill: #fff;fill-rule: evenodd"/>
    <polygon id="fullLogo-28" data-name="fullLogo" points="110.934 283.386 87.412 267.715 35.364 304.159 59.211 319.603 110.934 283.386" style="fill: #fff;fill-rule: evenodd"/>
    <polygon id="fullLogo-29" data-name="fullLogo" points="63.739 322.535 68.835 325.836 120.426 289.711 115.4 286.362 63.739 322.535" style="fill: #fff;fill-rule: evenodd"/>
    <polygon id="fullLogo-30" data-name="fullLogo" points="139.411 302.359 134.385 299.011 82.986 335.001 88.082 338.301 139.411 302.359" style="fill: #fff;fill-rule: evenodd"/>
    <polygon id="fullLogo-31" data-name="fullLogo" points="92.61 341.233 102.217 347.455 103.564 347.439 155.928 313.364 143.878 305.335 92.61 341.233" style="fill: #fff;fill-rule: evenodd"/>
    <path id="fullLogo-32" data-name="fullLogo" d="M102.5176,374.68a16.565,16.565,0,0,1-9.4981-2.9551L8.9,313.2964A20.7362,20.7362,0,0,1,0,296.2729V47.064A16.5831,16.5831,0,0,1,16.5645,30.5l34.0869-.0234c2.3115,0,4.44-.98,5.3-2.44C65.68,10.51,83.126.0142,102.5977,0c19.5136.0142,36.96,10.5093,46.71,28.0752.8369,1.42,2.9658,2.4009,5.2744,2.4009l34.0938.0234A16.5818,16.5818,0,0,1,205.2373,47.064v.1235c.0439.6279.0527,1.3359.0635,2.1387.0185,1.5185.0351,3.7456.0508,6.5932.0312,5.6709.0556,15.814.0742,25.72.0351,18.2706.0556,43.47.06,74.898.0087,56.4805-.0313,118.5166-.0469,140.8184a20.9524,20.9524,0,0,1-9.2149,17.35l-84.375,57.1318A16.5646,16.5646,0,0,1,102.5176,374.68ZM63.3193,34.2451a15.8812,15.8812,0,0,1-12.665,5.8306l-34.0869.0234A6.9738,6.9738,0,0,0,9.6,47.064V296.2729a11.1289,11.1289,0,0,0,4.7793,9.1387L98.4961,363.84a7.0946,7.0946,0,0,0,7.9687.0489l84.377-57.1329a11.3615,11.3615,0,0,0,4.9971-9.4062c.0771-106.7578.084-226.2949-.1231-246.9243l-.0146-.0049-.0625-1.2788-.001-2.0772a6.9734,6.9734,0,0,0-6.9648-6.9658l-34.0938-.0234a15.884,15.884,0,0,1-12.6611-5.83l-.126.07-.8389-1.5112-.8691-1.5083C131.9141,17.6826,118.0254,9.6055,102.6172,9.6c-15.4043.0059-29.291,8.0816-37.4619,21.6924,0,0-.8838,1.5342-.8907,1.5454l-.8193,1.4775Z" style="fill: #fff"/>
  </g>
</svg>
