<svg id="Layer_1" data-name="Layer 1" xmlns="http://www.w3.org/2000/svg" viewBox="0 0 161.8032 179.7775">
  <g>
    <path id="fullLogo" d="M161.7334,43.3926c-.0125-2.2785-.0258-4.0607-.0407-5.2749-.0094-.73-.0172-1.3309-.0633-1.8319h.0124A11.8489,11.8489,0,0,0,149.8074,24.45l-27.33-.0188a6.3255,6.3255,0,0,1-5.49-2.6672C109.4277,8.1453,95.9156.011,80.8362,0h-.0313C65.7256.011,52.2134,8.1457,44.6534,21.7642a6.3235,6.3235,0,0,1-5.4909,2.6668L11.8359,24.45A11.8493,11.8493,0,0,0,0,36.2858v82.08a15.1793,15.1793,0,0,0,6.5157,12.4615l67.433,46.8391a11.9762,11.9762,0,0,0,13.4627.0806l67.638-45.7994a15.3556,15.3556,0,0,0,6.7538-12.7144l-.01-55.2266C161.7781,56.067,161.7584,47.9374,161.7334,43.3926Zm-4.74,75.8373a10.5475,10.5475,0,0,1-4.64,8.7343L84.7144,173.7636a7.1305,7.1305,0,0,1-8.021-.0477L9.2605,126.8768A10.3664,10.3664,0,0,1,4.81,118.3656v-82.08A7.0343,7.0343,0,0,1,11.8376,29.26l27.3265-.0188a11.0039,11.0039,0,0,0,9.676-5.107l.0156-.0293C55.5571,12.0275,67.5049,4.815,80.8206,4.81c13.3156.0051,25.2636,7.2176,31.9648,19.2947l.0164.03a11.0052,11.0052,0,0,0,9.6738,5.1066l27.33.0188a7.0339,7.0339,0,0,1,7.0261,7.0261l.0008,1.6651.05.0184C157.0591,51.0646,157.0574,30.472,156.9932,119.23Z" style="fill: #fff"/>
    <path id="fullLogo-2" data-name="fullLogo" d="M121.3756,115.3054c8.22-2.2878,28.6611-14.2693,24.3478-36.8668a24.6756,24.6756,0,0,1-14.72,18.68s9.8542-9.481,11.5436-19.72a25.99,25.99,0,0,0-2.3254-15.9742c-.1119,14.6817-11.2447,22.8366-11.2447,22.8366s11.2784-14.3649,3.4724-30.75a33.4536,33.4536,0,0,0-6.6239-9.2775C133.2958,61.4047,123.16,77.15,123.16,77.15s5.4077-19.109-1.7839-31.0141C118.21,40.8951,113.869,36.05,107.7862,33.6636c0,0,8.953,7.0259,8.953,25.9791s-9.1215,34.3126-21.7914,47.2205c-9.2347,9.409-13,16.4452-14.3062,29.59-.7313-15.9372-12.7872-20.7487-18.0277-19.7441-4.766.9135-4.9376,4.2612-4.054,4.977a4.5147,4.5147,0,0,1-4.0405-3.4656c-.8337-3.519,3.1038-12.3256,8.6284-15.328C52.4452,90.8291,45.063,76.691,45.063,59.6427c0-18.9532,8.9534-25.9791,8.9534-25.9791C47.935,36.05,43.6032,40.8975,40.427,46.1362c-7.6823,12.6707-2.9137,29.3326-2.9137,29.3326s-9.629-13.6054-1.5358-31.235a32.7711,32.7711,0,0,0-7.7084,11.8626c-5.5583,15.2812,4.556,28.1644,4.556,28.1644S21.6937,76.1059,21.5805,61.4242a25.91,25.91,0,0,0-2.325,15.9742c1.689,10.2392,11.5431,19.72,11.5431,19.72A24.6756,24.6756,0,0,1,16.08,78.4386c-4.3133,22.5975,16.127,34.579,24.3473,36.8668-9.348.8716-16.669-4.7968-16.6667-4.7928,6.5169,14.624,19.1616,13.7711,33.6346,18.6265,20.6911,6.9411,19.479,23.49,22.6606,23.49,2.2234,0,3.2576-16.4144,24.3527-23.49,14.4721-4.8554,27.1168-4.0025,33.6342-18.6265C138.0442,110.5086,130.7228,116.177,121.3756,115.3054Z" style="fill: #fff"/>
    <path id="fullLogo-3" data-name="fullLogo" d="M64.3838,107.6477l-3.432,4.9681H58.2066a7.6989,7.6989,0,0,1,3.2428-4.1921A14.6608,14.6608,0,0,1,64.3838,107.6477Z" style="fill: #fff"/>
    <path id="fullLogo-4" data-name="fullLogo" d="M71.0652,30.93c.7141-.1454,1.4869-.3048,2.3088-.4862.5108-.64,3.5222-4.2346,6.9624-4.893-.0984-.0563-.1961-.1158-.2944-.1785A23.042,23.042,0,0,0,65.7008,31.055a3.6909,3.6909,0,0,0,.1864,1.3824A18.2265,18.2265,0,0,1,71.0652,30.93Z" style="fill: #fff"/>
    <path id="fullLogo-5" data-name="fullLogo" d="M65.6748,48.2033a19.678,19.678,0,0,0,8.0486-3.2275,31.3006,31.3006,0,0,1,3.4437-7.7671,12.7569,12.7569,0,0,0-3.7181-6.1062c-.799.1759-1.5541.3314-2.251.4746-2.3943.4895-4.1362.85-5.1537,1.5405l-.0582.07c-2.7583,3.29-4.0128,6.3873-3.7423,9.2082C63.64,44.7253,65.23,47.4427,65.6748,48.2033Z" style="fill: #fff"/>
    <polygon id="fullLogo-6" data-name="fullLogo" points="90.26 53.669 90.26 53.669 90.26 53.67 90.26 53.669" style="fill: #fff"/>
    <path id="fullLogo-7" data-name="fullLogo" d="M90.2664,29.3385a27.6616,27.6616,0,0,1-1.3821,6.9453,20.0632,20.0632,0,0,1,5.665,7.71c3.9059,1.0058,5.7778.8613,6.2241.8a8.693,8.693,0,0,0,1.7928-5.5333,21.0461,21.0461,0,0,0-4.376-6.7988A21.9306,21.9306,0,0,0,94.9819,29.72a23.6773,23.6773,0,0,0-4.3122-.3738C90.5,29.3439,90.3708,29.3417,90.2664,29.3385Z" style="fill: #fff"/>
    <path id="fullLogo-8" data-name="fullLogo" d="M77.73,37.52a31.309,31.309,0,0,0-3.4345,7.8584l-.0076-.002c-.0325.3513-.0443,2.9864,6.0233,8.6659a44.5761,44.5761,0,0,0,9.7784-.7685,16.2848,16.2848,0,0,0,3.8523-9.0262l0-.0065A19.4951,19.4951,0,0,0,88.31,36.6556a21.7246,21.7246,0,0,0-10.6091.83Z" style="fill: #fff"/>
    <path id="fullLogo-9" data-name="fullLogo" d="M82.6531,25.5986c.0273.0078.082.0175.1592.0312a20.02,20.02,0,0,1,7.2816,3.0764l.0094-.0363c.0742.0107.28.0117.5771.0166.7186.0119,1.8345.0322,2.9682.1563a24.6845,24.6845,0,0,0-12.222-3.479c.0844.0376.152.0668.2051.0889A4.85,4.85,0,0,1,82.6531,25.5986Z" style="fill: #fff"/>
    <path id="fullLogo-10" data-name="fullLogo" d="M94.5417,60.3161a15.0188,15.0188,0,0,0-4.3383-6.3915,45.44,45.44,0,0,1-8.4956.8029c-.4132,0-.8366-.0089-1.2625-.0221A45.8623,45.8623,0,0,1,75.56,62.3221c.7805,1.4529,3.0492,5.2386,4.5177,5.9327l-.0393.0836c.0846.0137.1777.035.2932.0658,3.8913,1.0556,7.229.6817,9.9213-1.1129l-.0043-.0043A21.6635,21.6635,0,0,0,94.5417,60.3161Z" style="fill: #fff"/>
    <path id="fullLogo-11" data-name="fullLogo" d="M80.9019,20.0687a28.6681,28.6681,0,1,0,28.6652,28.6688A28.6678,28.6678,0,0,0,80.9019,20.0687ZM98.7253,66.1142A24.745,24.745,0,1,1,80.8806,24.03a25.3161,25.3161,0,0,1,18.2627,7.5176,23.1853,23.1853,0,0,1,6.31,17.2158A23.8613,23.8613,0,0,1,98.7253,66.1142Z" style="fill: #fff"/>
    <path id="fullLogo-12" data-name="fullLogo" d="M65.1653,48.6394c-.3308-.5663-1.9773-3.3815-3.4326-5.8114-1.4485-.4332-3.0231,1.3494-3.8294,2.4478a23.6184,23.6184,0,0,0-.2561,3.4605,23.36,23.36,0,0,0,2.7366,10.9975,24.1726,24.1726,0,0,0,2.329,1.5312,10.2,10.2,0,0,0,3.2787-2.1268A19.2983,19.2983,0,0,1,65.1653,48.6394Z" style="fill: #fff"/>
    <path id="fullLogo-13" data-name="fullLogo" d="M101.3367,45.1428c.39.9344,2.0909,5.41.7917,9.27a6.9967,6.9967,0,0,1,1.2117.9623,23.8177,23.8177,0,0,0,.7934-6.625,23.2809,23.2809,0,0,0-1.0086-7.8978A8.5277,8.5277,0,0,1,101.3367,45.1428Z" style="fill: #fff"/>
    <path id="fullLogo-14" data-name="fullLogo" d="M79.5282,68.6953c-1.7881-1.1274-4.0372-5.1227-4.4895-5.9508-.0111,0-.0189.0025-.0311.0025-1.1653,0-6.7805-2.2958-8.6314-3.0661a10.7384,10.7384,0,0,1-3.3374,2.1658,16.8876,16.8876,0,0,0,.4619,2.3861,23.181,23.181,0,0,0,13.5179,7.561,8.6218,8.6218,0,0,0,2.5271-3.0761l-.0186-.02Z" style="fill: #fff"/>
    <path id="fullLogo-15" data-name="fullLogo" d="M101.9146,55.06c-1.1135,2.9913-5.8587,5.118-6.7591,5.4976a22.3677,22.3677,0,0,1-4.2932,7.0385,2.6315,2.6315,0,0,0,2.7814.9234A22.7231,22.7231,0,0,0,97.782,65.19a22.0193,22.0193,0,0,0,5.3359-9.0766A5.54,5.54,0,0,0,101.9146,55.06Z" style="fill: #fff"/>
  </g>
</svg>
