<svg id="Layer_1" data-name="Layer 1" xmlns="http://www.w3.org/2000/svg" viewBox="0 0 174.4237 193.8002">
  <g>
    <path id="fullLogo" d="M174.4237,128.5332a16.5528,16.5528,0,0,1-7.28,13.706L94.23,191.611a12.91,12.91,0,0,1-14.5129-.0869L7.0239,141.0316A16.3632,16.3632,0,0,1,0,127.5981V39.1161A12.7736,12.7736,0,0,1,12.7592,26.3569l29.4578-.02a6.8166,6.8166,0,0,0,5.9193-2.8748C56.286,8.781,70.8521.0118,87.1076,0h.0338c16.2555.0118,30.8216,8.7806,38.9705,23.4614a6.8186,6.8186,0,0,0,5.9184,2.8752l29.462.02A12.7732,12.7732,0,0,1,174.25,39.1161h-.0135c.05.54.0583,1.1882.0684,1.9747.016,1.309.03,3.23.0439,5.6864.027,4.8993.0481,13.663.0641,22.2216Z" style="fill: #b49a00"/>
    <path id="fullLogo-2" data-name="fullLogo" d="M54.9221,31.2654a11.0041,11.0041,0,0,1-9.6761,5.107L17.92,36.3912a7.0342,7.0342,0,0,0-7.0277,7.0261v82.08a10.3665,10.3665,0,0,0,4.4505,8.5112l67.4329,46.839a7.1307,7.1307,0,0,0,8.0211.0478l67.6388-45.7994a10.5483,10.5483,0,0,0,4.64-8.7344c.0642-88.7578.0658-68.1653-.11-81.2605l-.05-.0184-.0008-1.6651a7.0339,7.0339,0,0,0-7.0261-7.0261l-27.33-.0188a11.0053,11.0053,0,0,1-9.6738-5.1066l-.0164-.03c-6.7012-12.0771-18.6492-19.2895-31.9648-19.2946-13.3156.0051-25.2635,7.2175-31.9648,19.2946Z" style="fill: #fff"/>
    <path id="fullLogo-3" data-name="fullLogo" d="M86.8228,183.0789a8.064,8.064,0,0,1-4.6031-1.432L14.7869,134.808a11.3413,11.3413,0,0,1-4.8687-9.3109v-82.08a8.01,8.01,0,0,1,8.0014-8l27.3257-.0188A10.0372,10.0372,0,0,0,54.07,30.7939l.0075-.0141C60.9614,18.3733,73.229,10.973,86.9022,10.9677c13.6739.0053,25.9415,7.4056,32.8165,19.7959a10.0355,10.0355,0,0,0,8.8388,4.6351l27.331.0188a8.0087,8.0087,0,0,1,7.9991,8l.0005,1.0848.05.5856c.0321,2.3871.0583,3.6531.0793,4.667.0848,4.095.0848,4.095.0458,56.6609l-.0146,19.9464a11.5207,11.5207,0,0,1-5.0677,9.54L91.3423,181.7014A8.0508,8.0508,0,0,1,86.8228,183.0789Zm.0794-170.1638c-12.9548.0049-24.5862,7.03-31.1131,18.7933l-.0234.0432a11.9763,11.9763,0,0,1-10.52,5.5945L17.92,37.3649a6.06,6.06,0,0,0-6.0547,6.0524v82.08a9.3929,9.3929,0,0,0,4.0323,7.7115l67.4329,46.839a6.15,6.15,0,0,0,6.9191.0417l67.6394-45.8a9.5754,9.5754,0,0,0,4.2123-7.9289l.0146-19.9465c.0389-52.545.0389-52.545-.0454-56.6191-.019-.9177-.0423-2.0413-.07-4.0111l-.009-.0033-.05-.6977-.0009-1.6651a6.0593,6.0593,0,0,0-6.0524-6.0529l-27.331-.0188A11.9761,11.9761,0,0,1,118.04,31.7522C111.4891,19.9456,99.8578,12.92,86.9022,12.9151Z" style="fill: #fff"/>
    <path id="fullLogo-4" data-name="fullLogo" d="M168.1134,126.2443a15.3555,15.3555,0,0,1-6.7537,12.7144l-67.638,45.7994a11.9763,11.9763,0,0,1-13.4628-.0806L12.826,137.8384A15.1793,15.1793,0,0,1,6.31,125.3769v-82.08a11.8493,11.8493,0,0,1,11.836-11.836l27.3264-.0188a6.3237,6.3237,0,0,0,5.491-2.6668C58.5237,15.157,72.0358,7.0223,87.1152,7.0113h.0313c15.0794.011,28.5914,8.1453,36.1507,21.7638a6.3253,6.3253,0,0,0,5.49,2.6672l27.33.0188a11.8489,11.8489,0,0,1,11.8344,11.836H167.94c.0462.501.054,1.1023.0634,1.8319.0149,1.2142.0282,2.9964.0407,5.2749.025,4.5448.0446,12.6744.0595,20.6138ZM55.15,31.1452a11.0041,11.0041,0,0,1-9.6761,5.107l-27.3264.0188A7.0343,7.0343,0,0,0,11.12,43.2971v82.08a10.3665,10.3665,0,0,0,4.4505,8.5112l67.4329,46.8391a7.1307,7.1307,0,0,0,8.0211.0477l67.6388-45.7994a10.5478,10.5478,0,0,0,4.64-8.7343c.0642-88.7579.0658-68.1653-.11-81.2606l-.05-.0184-.0008-1.6651a7.0339,7.0339,0,0,0-7.0261-7.0261l-27.33-.0188a11.005,11.005,0,0,1-9.6737-5.1066l-.0165-.03c-6.7012-12.0771-18.6492-19.29-31.9648-19.2947-13.3156.0051-25.2635,7.2176-31.9648,19.2947Z"/>
    <path id="fullLogo-5" data-name="fullLogo" d="M87.05,187.2888a12.3433,12.3433,0,0,1-7.0764-2.2006l-67.433-46.8391A15.68,15.68,0,0,1,5.81,125.3769v-82.08a12.35,12.35,0,0,1,12.336-12.336l27.3261-.0188a5.8314,5.8314,0,0,0,5.06-2.42C58.1751,14.7548,71.853,6.5224,87.1149,6.5113c15.2942.0111,28.9718,8.2433,36.6195,22.0211a5.8319,5.8319,0,0,0,5.053,2.41l27.3307.0188a12.3491,12.3491,0,0,1,12.334,12.336v.1317c.0353.4839.0426,1.05.0509,1.6938.0149,1.2152.0282,2.9986.0407,5.2786.025,4.5452.0446,12.6755.0595,20.6156l.01,55.2279a15.8555,15.8555,0,0,1-6.9733,13.128l-67.638,45.7994A12.3464,12.3464,0,0,1,87.05,187.2888Zm.096-179.7775c-14.9242.0109-28.2755,8.0508-35.7453,21.5069a6.8347,6.8347,0,0,1-5.9282,2.9241l-27.3261.0188A11.3489,11.3489,0,0,0,6.81,43.2971v82.08a14.6789,14.6789,0,0,0,6.301,12.0509l67.4329,46.839a11.4763,11.4763,0,0,0,12.8972.0773l67.638-45.7994a14.8576,14.8576,0,0,0,6.534-12.3007l-.01-55.2262c-.0149-7.9379-.0345-16.0668-.0595-20.6111-.0125-2.2771-.0258-4.0581-.0406-5.2716-.0091-.7028-.0169-1.31-.0614-1.7921l-.05-.5459h.05a11.349,11.349,0,0,0-11.3235-10.836l-27.3306-.0188a6.8346,6.8346,0,0,1-5.9207-2.9134C115.3911,15.562,102.04,7.5222,87.1462,7.5113Zm-.0953,174.9743a7.59,7.59,0,0,1-4.3326-1.3478l-67.4329-46.839a10.8674,10.8674,0,0,1-4.6652-8.9219v-82.08a7.5354,7.5354,0,0,1,7.5277-7.5261l27.3261-.0188a10.5075,10.5075,0,0,0,9.2391-4.85l.0116-.0218c6.7946-12.2453,18.9074-19.5545,32.4059-19.56,13.4991.0052,25.6119,7.3144,32.4022,19.5521a10.51,10.51,0,0,0,9.253,4.8789l27.3307.0188a7.5345,7.5345,0,0,1,7.5257,7.5261l.0007,1.3442.05.3326c.0321,2.3888.0583,3.6557.0793,4.67.0847,4.09.0847,4.09.0458,56.6507l-.0147,19.9466a11.0471,11.0471,0,0,1-4.86,9.1479L91.3051,181.1889A7.5782,7.5782,0,0,1,87.0509,182.4856Zm.08-170.1644c-13.13.005-24.9157,7.1218-31.5274,19.0373l-.02.0364a11.5033,11.5033,0,0,1-10.1093,5.3573l-27.3261.0188a6.5343,6.5343,0,0,0-6.528,6.5261v82.08a9.8669,9.8669,0,0,0,4.2358,8.1006l67.4329,46.839a6.6262,6.6262,0,0,0,7.4552.0446l67.6391-45.8a10.0482,10.0482,0,0,0,4.42-8.3206l.0147-19.9466c.0389-52.55.0389-52.55-.0455-56.6293-.02-.9664-.0448-2.1614-.0748-4.3336l-.0046-.0017-.05-.3673-.0008-1.6651a6.5335,6.5335,0,0,0-6.5261-6.5263l-27.3306-.0188a11.503,11.503,0,0,1-10.1065-5.3568C112.0469,19.443,100.2608,12.3262,87.1306,12.3212Z"/>
    <path id="fullLogo-6" data-name="fullLogo" d="M127.6859,122.3167c8.22-2.2878,28.6611-14.2693,24.3478-36.8668a24.6756,24.6756,0,0,1-14.72,18.68s9.8542-9.481,11.5436-19.72a25.99,25.99,0,0,0-2.3254-15.9742c-.1119,14.6817-11.2447,22.8366-11.2447,22.8366s11.2784-14.3649,3.4724-30.7495a33.4536,33.4536,0,0,0-6.6239-9.2775c7.47,17.1709-2.6661,32.9165-2.6661,32.9165s5.4077-19.109-1.7839-31.0141c-3.1658-5.2411-7.5066-10.0859-13.5894-12.4726,0,0,8.953,7.0259,8.953,25.9791s-9.1215,34.3126-21.7914,47.2205c-9.2347,9.409-13,16.4452-14.3062,29.59-.7313-15.9372-12.7872-20.7487-18.0277-19.7441-4.766.9135-4.9376,4.2612-4.054,4.977a4.5147,4.5147,0,0,1-4.04-3.4656c-.8337-3.519,3.1038-12.3256,8.6284-15.328C58.7555,97.84,51.3733,83.7023,51.3733,66.654c0-18.9532,8.9534-25.9791,8.9534-25.9791-6.0814,2.386-10.4132,7.2339-13.5894,12.4726C39.055,65.8182,43.8236,82.48,43.8236,82.48s-9.629-13.6054-1.5358-31.235a32.7711,32.7711,0,0,0-7.7084,11.8626c-5.5583,15.2812,4.556,28.1644,4.556,28.1644S28.004,83.1172,27.8908,68.4355A25.91,25.91,0,0,0,25.5658,84.41c1.689,10.2392,11.5431,19.72,11.5431,19.72A24.6756,24.6756,0,0,1,22.39,85.45c-4.3133,22.5975,16.127,34.579,24.3473,36.8668-9.348.8716-16.669-4.7968-16.6667-4.7928,6.5169,14.624,19.1616,13.7711,33.6346,18.6265,20.6911,6.9411,19.479,23.49,22.6606,23.49,2.2234,0,3.2576-16.4144,24.3527-23.49,14.4721-4.8554,27.1168-4.0025,33.6342-18.6265C144.3545,117.52,137.0331,123.1883,127.6859,122.3167Z" style="fill: #b49a00"/>
    <path id="fullLogo-7" data-name="fullLogo" d="M70.6941,114.659l-3.432,4.9681H64.5169A7.6989,7.6989,0,0,1,67.76,115.435,14.6608,14.6608,0,0,1,70.6941,114.659Z" style="fill: #b49a00"/>
    <path id="fullLogo-8" data-name="fullLogo" d="M58.5463,55.7488A28.6656,28.6656,0,1,1,87.2122,84.4161,28.6678,28.6678,0,0,1,58.5463,55.7488Z" style="fill: #b49a00"/>
    <polygon id="fullLogo-9" data-name="fullLogo" points="63.297 55.747 63.32 54.522 63.429 53.292 63.582 52.087 63.78 50.903 64.042 49.74 64.371 48.603 64.744 47.484 65.183 46.39 65.666 45.336 66.191 44.283 66.761 43.277 67.375 42.31 68.053 41.368 68.755 40.448 69.5 39.592 70.312 38.76 71.123 37.949 72 37.203 72.899 36.48 73.841 35.823 74.805 35.187 75.814 34.615 76.844 34.068 77.897 33.585 78.992 33.17 80.088 32.778 81.228 32.468 82.39 32.183 83.551 31.986 84.757 31.831 85.962 31.723 87.191 31.701 88.418 31.723 89.646 31.81 90.852 31.964 92.036 32.141 93.198 32.403 94.359 32.688 95.477 33.037 96.572 33.455 97.646 33.893 98.699 34.399 99.728 34.946 100.717 35.539 101.658 36.173 102.579 36.852 103.476 37.599 104.31 38.366 105.12 39.176 105.888 40.032 106.612 40.93 107.269 41.849 107.905 42.836 108.473 43.846 109 44.876 109.462 45.95 109.878 47.067 110.251 48.229 110.536 49.389 110.775 50.619 110.952 51.845 111.063 53.119 111.127 54.435 111.104 55.747 111.084 57.063 111.018 58.336 110.886 59.584 110.689 60.811 110.447 61.997 110.141 63.178 109.768 64.318 109.352 65.416 108.869 66.489 108.345 67.541 107.773 68.551 107.14 69.516 106.481 70.456 105.757 71.356 105.011 72.21 104.202 73.023 103.367 73.812 102.492 74.558 101.57 75.234 100.628 75.893 99.663 76.484 98.634 77.054 97.602 77.558 96.528 78.019 95.433 78.435 94.315 78.786 93.174 79.092 92.013 79.358 90.829 79.553 89.646 79.683 88.418 79.772 87.191 79.795 85.962 79.772 84.757 79.683 83.551 79.531 82.39 79.311 81.228 79.052 80.088 78.72 78.992 78.348 77.897 77.909 76.844 77.428 75.814 76.899 74.805 76.332 73.841 75.695 72.899 75.016 72 74.315 71.123 73.548 70.312 72.758 69.5 71.926 68.755 71.048 68.053 70.15 67.375 69.208 66.761 68.223 66.191 67.213 65.666 66.182 65.183 65.109 64.744 64.012 64.371 62.894 64.042 61.754 63.78 60.591 63.582 59.409 63.429 58.203 63.32 56.997 63.297 55.747" style="fill: #fff"/>
    <path id="fullLogo-10" data-name="fullLogo" d="M87.1905,80.4546a24.707,24.707,0,0,1,0-49.4131,25.3149,25.3149,0,0,1,18.2622,7.5169,23.186,23.186,0,0,1,6.311,17.2162,23.8638,23.8638,0,0,1-6.7289,17.3511A24.7182,24.7182,0,0,1,87.1905,80.4546Zm0-48.0931a23.3882,23.3882,0,1,0,16.9014,39.84,22.5858,22.5858,0,0,0,6.3524-16.4412A21.6231,21.6231,0,0,0,104.5,39.4723,23.99,23.99,0,0,0,87.1905,32.3615Z"/>
    <path id="fullLogo-11" data-name="fullLogo" d="M87.817,33.1258A8.4014,8.4014,0,0,1,85.9331,32.09l.41-.5176a7.8619,7.8619,0,0,0,1.712.9377Z"/>
    <path id="fullLogo-12" data-name="fullLogo" d="M71.54,55.761c0-.0005-1.9287-3.3066-3.571-6.0474l.5662-.3392c1.6442,2.744,3.575,6.054,3.575,6.054Z"/>
    <path id="fullLogo-13" data-name="fullLogo" d="M72.2608,40.1881l-.3892-.5332c1.1192-.8169,2.96-1.1933,5.507-1.7144.7473-.1528,1.5545-.3179,2.419-.51l.1431.6444c-.8684.1928-1.6792.3587-2.43.5122C75.0453,39.0915,73.2638,39.4559,72.2608,40.1881Z"/>
    <path id="fullLogo-14" data-name="fullLogo" d="M80.6055,52.39l-.6385-.1674c.8683-3.3116,3.27-8.1547,3.7965-8.2644l.3332.121-.2609.2053.0015-.0012,0,.0028.2038.245A31.2744,31.2744,0,0,0,80.6055,52.39Zm3.2273-8.1031-.2548.2Z"/>
    <polygon id="fullLogo-15" data-name="fullLogo" points="96.266 36.019 95.522 35.558 94.82 35.144 93.46 34.441 92.254 33.893 91.181 33.52 90.303 33.236 89.601 33.061 88.879 32.93 88.463 32.842 88.044 32.778 87.628 32.778 87.235 32.797 86.819 32.842 86.401 32.93 85.612 33.19 84.845 33.52 84.1 33.937 83.377 34.399 82.719 34.901 82.106 35.427 81.557 35.932 80.659 36.831 80.066 37.51 79.869 37.753 80.636 38.563 81.206 39.22 81.842 40.032 82.478 40.952 82.762 41.456 83.047 41.982 83.288 42.508 83.509 43.079 83.683 43.626 83.816 44.218 84.034 44.13 84.67 43.933 85.656 43.647 86.993 43.385 87.76 43.255 88.593 43.144 89.514 43.079 90.479 43.033 91.488 43.033 92.562 43.079 93.658 43.188 94.82 43.363 95.016 42.771 95.213 42.07 95.477 41.171 95.718 40.075 95.958 38.827 96.156 37.466 96.266 36.019"/>
    <path id="fullLogo-16" data-name="fullLogo" d="M83.76,44.3231l-.1527-.6806-.1721-.54-.2188-.5667-.24-.521L82.4109,40.99l-.6327-.9141-.6329-.808-.5673-.654-.8112-.857.24-.2957.594-.6809.9015-.9027.5513-.5066.6157-.528.6611-.5051.7288-.4657.748-.4187.775-.3341.7948-.2627.4262-.09.4241-.0468.3976-.0194.42,0,.43.0656.42.088.7207.1312.7065.1762.8829.2856,1.0743.3733,1.2129.5507,1.3631.7043.7058.4165.7854.4861-.1136,1.4942-.1986,1.3657-.24,1.2519-.2424,1.0981L95.09,42.7918l-.2181.6572-1.2257-.1847-1.0919-.1087-1.07-.0452H90.4785l-.9613.0455-.9186.0653-.8282.11-.7643.13-1.3352.2621-.9792.284-.6346.1966Zm-3.7887-6.5742.7207.7614.5719.6594.6381.8147.6392.9238.2879.51.2856.5272.2435.53.2223.5755.1753.5509.1148.51.1348-.0542.6418-.1991.9872-.286,1.3438-.264.7689-.13.8357-.1109.9251-.0658.9668-.0457,1.0126,0,1.078.0456,1.1.1095,1.1013.1659.1761-.5307.196-.6972.2636-.9.2406-1.0909.2389-1.2464.1974-1.357.1059-1.3956-.7044-.436L94.78,35.21l-1.3558-.7-1.2028-.5463-1.0663-.37-.8762-.2836-.6965-.1737-.718-.13-.4181-.0877-.4141-.064-.4042.0009-.3892.019-.4121.0453-.41.0861-.78.2581-.7615.3281-.7371.4129-.72.46-.6524.4987-.61.5235-.547.5025-.8956.8966Z"/>
    <path id="fullLogo-17" data-name="fullLogo" d="M83.5616,44.6781l-.0711-.4029a12.7736,12.7736,0,0,0-3.8282-6.2625l-.2056-.2053.1513-.2564c.1943-.2515,4.8109-6.1462,9.3553-4.94.0282.0074.0824.017.16.0314a20.0292,20.0292,0,0,1,7.3247,3.1017l.1561.1031-.0084.187a27.24,27.24,0,0,1-1.4665,7.4443l-.0958.2578-.2708-.0477a21.5577,21.5577,0,0,0-10.822.8352Zm-3.2493-6.9466a13.5576,13.5576,0,0,1,3.749,6.0435A22.3,22.3,0,0,1,94.6,42.9911a27.3556,27.3556,0,0,0,1.3272-6.8,19.2658,19.2658,0,0,0-6.9248-2.9006c-.0995-.0185-.1691-.032-.2069-.0419C85.1435,32.28,81.1965,36.6756,80.3123,37.7315Z"/>
    <path id="fullLogo-18" data-name="fullLogo" d="M102.6273,37.1714c-1.4682-.7434-4.3938-.7923-5.6431-.8132-.73-.0122-.7731-.0129-.8879-.13l.4713-.4622-.2357.2311.0823-.3167c.075.0115.2825.0128.581.0178,1.4044.0234,4.3267.0723,5.93.8843Z"/>
    <path id="fullLogo-19" data-name="fullLogo" d="M100.7865,51.5356l-.4071-.52.2035.26-.3235.0015a19.3909,19.3909,0,0,0-5.6988-7.6628l.428-.5025c4.2651,3.6326,5.9384,7.7176,5.9295,8.1522Z"/>
    <path id="fullLogo-20" data-name="fullLogo" d="M109.7087,63.5583a5.0713,5.0713,0,0,0-1.811-1.6912l.3225-.5759a5.63,5.63,0,0,1,2.089,1.9931Z"/>
    <polygon id="fullLogo-21" data-name="fullLogo" points="101.196 67.323 101.461 67.191 102.163 66.862 103.149 66.336 104.31 65.657 104.924 65.263 105.516 64.824 106.108 64.364 106.633 63.858 107.117 63.312 107.512 62.764 107.839 62.149 107.95 61.841 108.059 61.535 108.301 60.744 108.454 59.935 108.564 59.101 108.586 58.29 108.564 57.479 108.473 56.712 108.366 55.946 108.234 55.244 107.927 53.973 107.599 52.985 107.269 52.109 107.182 52.087 106.896 52.109 106.436 52.131 105.736 52.131 104.836 52.064 103.675 51.934 102.271 51.672 100.583 51.276 100.583 51.516 100.496 52.153 100.3 53.138 99.992 54.388 99.773 55.09 99.488 55.835 99.159 56.604 98.786 57.414 98.325 58.203 97.822 59.014 97.23 59.805 96.572 60.591 96.748 60.703 97.187 61.098 97.822 61.711 98.545 62.542 99.313 63.574 99.708 64.122 100.058 64.712 100.408 65.328 100.717 65.987 100.979 66.643 101.196 67.323"/>
    <path id="fullLogo-22" data-name="fullLogo" d="M101.1505,67.4322l-.2449-.7657-.2606-.6512-.3063-.6544-.3481-.6105-.3493-.5891L99.25,63.619l-.7671-1.0307-.7191-.8271-.6308-.6077-.4367-.3936-.2394-.151.7144-.8538.5889-.7873.4993-.8055.46-.7869.3694-.8036.328-.7675.2844-.7422.2169-.6966.3067-1.2461.1956-.9816.0861-.6318-.0007-.3274,1.7831.4182,1.4.2616,1.1557.1293.8974.0667.6936,0,.7528-.0444.1386.0346.344.9136.3295.991.3085,1.2766.1324.7065.1083.77.0908.7683.0223.8181-.0218.8152-.111.8421-.1534.8132-.2439.7988-.2213.6176L107.58,62.8l-.4007.5569-.488.552-.53.5107-.5985.4654-.593.44-.6182.3975-1.1642.68-.9884.5275Zm-4.4627-6.8591.1015.0646.4488.4031.6374.6144.7275.8366.7714,1.0362.3956.549.3538.596.3515.6172.311.6639.2641.66.192.6.1839-.0919.7037-.33.9823-.5243,1.1588-.6768.6112-.3929.5873-.4359.591-.459.5193-.501.479-.5415.39-.5421.3217-.6058.2156-.6037.2408-.7872.1506-.8008.11-.83.0211-.803-.0218-.8069-.09-.76-.1074-.7645-.1311-.6991-.3058-1.2665-.3268-.982-.3145-.8352-.0361-.009-.273.0209-.4629.022-.703,0-.906-.0671-1.1642-.13-1.4088-.2632L100.66,51.373v.1434l-.0877.6469-.197.9895-.3088,1.254-.22.7058-.2872.75-.33.7721-.3736.8122-.4645.7953-.504.8127-.5954.7961Z"/>
    <path id="fullLogo-23" data-name="fullLogo" d="M100.9762,67.7668l-.098-.3562A14.8408,14.8408,0,0,0,96.45,60.89l.1484-.2589-.2694-.2632a16.2539,16.2539,0,0,0,3.9245-9.1093l.021-.4054.3925.103c4.6677,1.2267,6.51.8353,6.5275.8313l.2633-.06.1125.2459c.0981.2181,2.3824,5.39.7985,9.6753-.8526,3.4625-6.7969,5.879-7.0495,5.98Zm-3.917-7.226a15.89,15.89,0,0,1,4.3475,6.3329c1.2552-.5581,5.6589-2.6913,6.3319-5.4179,1.32-3.5768-.2576-7.9418-.6748-8.9816a18.4068,18.4068,0,0,1-6.1854-.7814A16.748,16.748,0,0,1,97.0592,60.5408Z"/>
    <path id="fullLogo-24" data-name="fullLogo" d="M88.0178,61.7384q-.7129,0-1.4532-.0257l.0236-.66a44.4318,44.4318,0,0,0,9.8916-.7844l.1417.6446A44.9136,44.9136,0,0,1,88.0178,61.7384Z"/>
    <polygon id="fullLogo-25" data-name="fullLogo" points="86.533 61.426 85.328 60.284 84.297 59.212 83.42 58.246 82.675 57.349 82.061 56.517 81.557 55.769 81.142 55.111 80.834 54.498 80.614 53.996 80.461 53.534 80.352 53.138 80.286 52.834 80.286 52.372 80.307 52.197 79.628 52.679 78.927 53.119 78.203 53.511 77.48 53.863 76.758 54.17 76.033 54.435 74.697 54.873 73.534 55.179 72.613 55.398 72.022 55.506 71.825 55.573 71.626 56.669 71.496 57.745 71.43 58.774 71.43 59.759 71.473 60.703 71.54 61.579 71.671 62.413 71.803 63.178 72.109 64.496 72.416 65.503 72.636 66.139 72.744 66.359 73.971 66.862 76.735 67.958 78.269 68.527 79.651 69.01 80.746 69.338 81.12 69.426 81.36 69.426 81.863 68.814 82.369 68.177 83.31 66.841 84.188 65.503 84.978 64.231 85.612 63.093 86.095 62.193 86.533 61.426"/>
    <path id="fullLogo-26" data-name="fullLogo" d="M81.3967,69.5034H81.12l-.3919-.0906-1.099-.329L78.2434,68.6l-1.5351-.5689-2.7656-1.0973-1.2545-.5143-.1216-.2462-.2232-.6449-.3081-1.0093-.3075-1.3231-.1328-.77-.1313-.8346-.0675-.8826-.0428-.9462,0-.9884L71.42,57.74l.13-1.08.2073-1.1452.24-.0813.602-.1112.9168-.2179,1.1609-.3057,1.3321-.4368.7219-.2642.719-.3047.72-.3506.72-.3911.6968-.4371.817-.5807-.0413.3477.0006.4536.064.2871.1077.3918.1525.4581.2166.4959.3063.61.4114.6512.5034.7456.6114.8295.7429.8941.8749.9625,1.0287,1.0712L86.63,61.4116l-.4685.8192-.4812.8985-.6355,1.1392-.7913,1.2749-.8789,1.34-.943,1.3386-.5087.64ZM72.8,66.2985,74,66.79l2.7631,1.0964,1.5322.5678,1.3807.4827,1.0913.3267.37.0875.186-.0018.48-.5849.5052-.6356.939-1.333.8763-1.3356.7885-1.27.6331-1.135.4815-.8992.4095-.716-1.1616-1.1-1.0327-1.0754-.8787-.9666-.7478-.9-.6161-.8356-.5065-.75-.4164-.66-.3117-.62-.2209-.5062-.1562-.4685-.11-.4-.0668-.3075-.0018-.479.0014-.0122-.5381.3824-.7047.442-.7276.395-.7265.3538-.7261.3078-.728.2665-1.339.439-1.1671.3074-.9225.2192-.5952.1093-.1435.0491-.1905,1.0515-.1289,1.0715-.0657,1.0249,0,.98.0427.94.0666.8741.13.8274.1317.7643.3053,1.3137L72.49,65.48l.2185.6333Z"/>
    <path id="fullLogo-27" data-name="fullLogo" d="M81.3182,69.7589c-1.1785,0-6.9177-2.3523-8.7008-3.0955l-.12-.05-.0536-.1186a19.0785,19.0785,0,0,1-.9417-10.9911l.0489-.2282.2315-.03a19.8157,19.8157,0,0,0,8.3231-3.31l.4973.408h0c.0032,0-.5379,2.6215,6.1551,8.8409l.1807.168-.11.2209a45.2361,45.2361,0,0,1-5.2206,8.0714l-.0724.0823-.1073.0226A.5435.5435,0,0,1,81.3182,69.7589ZM72.9958,66.106a63.0174,63.0174,0,0,0,8.2095,2.9961,43.9429,43.9429,0,0,0,4.9208-7.6046c-4.9947-4.6838-6.0039-7.4139-6.1525-8.6483a20.4606,20.4606,0,0,1-7.8726,3.0166A18.8909,18.8909,0,0,0,72.9958,66.106Z"/>
    <path id="fullLogo-28" data-name="fullLogo" d="M69.0977,68.9518l-.2044-.6277a9.9913,9.9913,0,0,0,3.5518-2.3076l.47.4638A10.4757,10.4757,0,0,1,69.0977,68.9518Z"/>
    <polygon id="fullLogo-29" data-name="fullLogo" points="65.884 66.554 66.65 67.913 67.331 69.054 67.945 69.974 68.469 70.698 68.909 71.245 69.259 71.597 69.5 71.795 69.631 71.839 69.347 70.742 69.128 69.711 69.041 69.163 68.996 68.638 68.164 68.155 67.178 67.498 65.884 66.554"/>
    <path id="fullLogo-30" data-name="fullLogo" d="M69.7412,71.9569l-.29-.1021-.2407-.1984L68.8547,71.3l-.4456-.5533-.5265-.7269-.6154-.9232-.6829-1.1434-.9413-1.6706,1.58,1.1531.9833.6558.8626.5.0485.5646.0869.5432.218,1.0266Zm-3.6154-5.1316.5917,1.05.68,1.1385.6116.9175.5224.7213.4378.5442.3446.3456.2044.1679-.2459-.95-.22-1.0338-.0883-.5526-.0423-.49-.7974-.4625-.99-.66Z"/>
    <path id="fullLogo-31" data-name="fullLogo" d="M69.6561,72.1619c-.8336,0-2.85-3.1892-4.0626-5.4522l.4909-.4184a24.3861,24.3861,0,0,0,3.0636,2.0539l.1647.0858.0122.1853a17.9365,17.9365,0,0,0,.6226,3.1289l.0786.2649-.247.1239A.27.27,0,0,1,69.6561,72.1619Zm-2.75-4.4536a23.5,23.5,0,0,0,2.1289,3.158,15.2147,15.2147,0,0,1-.3545-2.0246C68.4044,68.6866,67.79,68.3244,66.9061,67.7083Z"/>
    <path id="fullLogo-32" data-name="fullLogo" d="M97.0218,74.7686l-.4611-.4724.2305.2362-.2315-.2352a21.8548,21.8548,0,0,0,4.3241-7.0574l.6252.2116A22.4492,22.4492,0,0,1,97.0218,74.7686Z"/>
    <path id="fullLogo-33" data-name="fullLogo" d="M86.1062,75.8633c-1.9822-.9368-4.7249-6.0428-4.8407-6.26l.5823-.3108c.76,1.424,3.0583,5.2733,4.54,5.9737Z"/>
    <polygon id="fullLogo-34" data-name="fullLogo" points="72.044 39.987 71.934 39.724 71.76 39.109 71.693 38.693 71.671 38.257 71.693 37.815 71.825 37.401 70.465 38.715 69.282 40.009 68.252 41.258 67.375 42.463 66.63 43.647 65.971 44.788 65.445 45.86 65.007 46.915 64.656 47.879 64.371 48.801 64.13 49.677 63.955 50.465 63.648 51.845 63.385 52.92 63.824 52.287 64.306 51.627 64.92 50.925 65.292 50.576 65.666 50.246 66.059 49.962 66.477 49.72 66.915 49.544 67.352 49.454 67.792 49.436 68.23 49.544 68.186 49.085 68.186 48.603 68.207 48.098 68.252 47.593 68.339 47.045 68.448 46.499 68.602 45.928 68.799 45.336 69.041 44.721 69.304 44.11 69.631 43.451 70.005 42.793 70.444 42.113 70.926 41.413 71.452 40.71 72.044 39.987"/>
    <path id="fullLogo-35" data-name="fullLogo" d="M63.2109,53.3073l.3626-1.4807.4814-2.1664.2417-.88.2854-.9244.353-.9674.4391-1.058.5281-1.0772.6608-1.1448.7463-1.1869.88-1.2093,1.033-1.2523,1.1855-1.2972,1.5829-1.53-.2216.6952-.0214.4322.0219.4286.0659.4074.1725.6066L72.1326,40l-.6215.7589-.5237.7-.48.6983-.438.6776-.3712.6545-.3255.6553-.2612.6075-.2408.6125-.1955.5884-.1524.5661-.1086.5412-.0864.5455-.0435.4989-.0213.5016v.4792l.0541.56-.533-.1319-.4286.0181L66.93,49.62l-.4247.1719-.4075.237-.3871.28-.3676.3251-.3707.3482-.6082.6958-.4785.6545Zm8.4475-15.6384-1.14,1.1017-1.1795,1.2908L68.311,41.307l-.8742,1.2013-.7419,1.18-.6569,1.1377-.5236,1.0682-.4359,1.05-.3505.9606-.2836.9184-.24.8735-.4809,2.1643-.1645.6719.2012-.2908.4839-.6614.6177-.7065.3776-.3551.3752-.3314.4-.2889.4239-.2461.4478-.1808.4508-.0937.4629-.0206.3434.0849-.0336-.35,0-.49.0216-.5083.0444-.5077.0877-.5539.11-.5492.1549-.5752.1981-.5966.2431-.6186.264-.6136.3293-.6629.3754-.662.4415-.6833.4832-.7026.5276-.705.5649-.69-.0918-.22-.1776-.6241-.0687-.4246-.0227-.4446.0253-.4694Z"/>
    <path id="fullLogo-36" data-name="fullLogo" d="M63.6687,53.0889l-.5985-.2678c.1251-.3964.2324-.9076.3566-1.5.6446-3.0708,1.7234-8.21,8.174-14.1629l.5281.37a3.408,3.408,0,0,0,.215,2.3207l.0866.1895-.1338.16c-2.7914,3.33-4.0492,6.4625-3.7387,9.3093l.057.5226L68.12,49.855C66.4052,49.2469,64.3254,51.9832,63.6687,53.0889ZM71.3351,38.32c-5.601,5.46-6.6358,10.155-7.2421,13.0407.9021-1.0986,2.31-2.4168,3.7714-2.24-.1554-2.86,1.1207-5.9494,3.7988-9.1925A4.9116,4.9116,0,0,1,71.3351,38.32Z"/>
    <polygon id="fullLogo-37" data-name="fullLogo" points="82.784 79.511 83.201 79.268 83.596 79.026 83.946 78.743 84.297 78.435 84.89 77.8 85.371 77.165 85.766 76.595 86.029 76.111 86.247 75.673 86.445 75.695 87.124 75.87 88.199 76.111 88.856 76.2 89.581 76.287 90.369 76.332 91.225 76.308 92.101 76.244 93 76.091 93.943 75.87 94.886 75.542 95.827 75.123 96.288 74.863 96.748 74.577 97.032 74.95 97.339 75.257 97.646 75.499 97.998 75.695 98.348 75.804 98.677 75.893 99.028 75.917 99.378 75.938 99.992 75.85 100.496 75.739 100.956 75.565 100.189 76.091 99.421 76.572 98.657 77.01 97.888 77.404 97.12 77.755 96.375 78.084 95.608 78.37 94.863 78.634 93.394 79.071 91.948 79.379 90.588 79.617 89.272 79.751 88.044 79.816 86.928 79.838 85.897 79.816 84.998 79.751 83.574 79.617 82.784 79.511"/>
    <path id="fullLogo-38" data-name="fullLogo" d="M86.93,79.9152l-1.0345-.0218-.9023-.0657-1.426-.1342-1.0157-.136.6111-.3557.3934-.241.3421-.2778.3491-.3055.5866-.63.4765-.6285.3929-.5672.2581-.4773.2415-.4833.2514.0276.69.1772,1.0721.24.65.0881.7242.0871.783.0438.8493-.0232.8732-.0645.891-.1518.9386-.22.9351-.3262.9349-.4168.4545-.2565.5171-.3214.3263.4292.3.2988.3.2359.3415.19.336.1028.3257.0877.6861.0424.598-.0866.4985-.1106,1.047-.3963-1.2934.8873-.7708.4823-.7673.44-.7717.395-.7707.3531-.7463.329-.7716.2879-.7458.2641-1.4724.4382-1.4524.3095-1.3628.2386-1.3212.1348-1.2315.0658Zm-3.9125-.4507.5672.076,1.4213.1337.8967.0654,1.0275.0216,1.1132-.0218,1.2252-.0654L90.58,79.54l1.3545-.2373,1.4438-.3074,1.4628-.4355.7408-.2625.7662-.2858.7412-.3268.7666-.3512.7654-.3918.7616-.4371.7656-.479.2837-.1947-.4239.0946-.6192.0882-.7177-.0442-.3433-.0911-.3536-.11-.3662-.2025-.3169-.2487-.3141-.3127-.2483-.3255-.4009.2491-.4639.2615-.9473.4224-.9489.3308-.951.2231-.903.1536-.8839.0656-.8593.0233-.7943-.0443-.73-.0877-.6578-.0894-1.081-.2417L86.426,75.77l-.1338-.0142-.1948.39-.2637.4868-.3993.577-.4834.6372-.5972.6417-.3571.3129-.3525.2855Z"/>
    <path id="fullLogo-39" data-name="fullLogo" d="M87.1318,80.1768a28.9343,28.9343,0,0,1-4.1409-.3036l-1.3568-.1751,1.0068-.4845a7.9437,7.9437,0,0,0,3.2148-3.4847l-.0185-.0209.1263-.2175c.1375-.2215.33-.1695.678-.0748,3.8923,1.057,7.2309.6824,9.9233-1.1135l.2868-.1913.1786.2949c1.2153,2.0065,3.6844.9068,3.789.859l.328.5694A23.9042,23.9042,0,0,1,87.1318,80.1768ZM83.7654,79.31a24.1474,24.1474,0,0,0,15.5187-3.0489,3.1,3.1,0,0,1-2.6293-1.2322c-2.0014,1.2427-5.3295,2.3425-10.1863,1.0235l-.031-.0085A9.1909,9.1909,0,0,1,83.7654,79.31Z"/>
    <path id="fullLogo-40" data-name="fullLogo" d="M107.5629,52.262l-.4989-.4322c2.1756-2.5119,1.7889-6.2232,1.7848-6.26l.6559-.0741A9.6321,9.6321,0,0,1,107.5629,52.262Z"/>
  </g>
</svg>
