<svg id="Layer_1" data-name="Layer 1" xmlns="http://www.w3.org/2000/svg" viewBox="0 0 205.4941 374.6802">
  <g>
    <path id="fullLogo" d="M62.1216,31.4621l.7451.4609c-2.2647,3.93-6.89,6.3706-12.07,6.3706l-34.0879.0234a8.7748,8.7748,0,0,0-8.7666,8.7647v249.21a12.9314,12.9314,0,0,0,5.5517,10.6171l84.1182,58.4288a8.8953,8.8953,0,0,0,10.0059.0595l84.375-57.1318a13.1581,13.1581,0,0,0,5.7881-10.8955c.08-110.72.082-231.8521-.1377-248.1875l-.0625-.023-.001-2.0771a8.7745,8.7745,0,0,0-8.7647-8.7647l-34.0927-.0234c-5.1768,0-9.8018-2.4409-12.0674-6.37l.7363-.4575-.7568.42C134.2749,16.8209,119.3706,7.8239,102.76,7.8175c-16.61.0064-31.5146,9.0034-39.874,24.0689Z" style="fill: #fff"/>
    <path id="fullLogo-2" data-name="fullLogo" d="M102.6606,367.9064a9.8427,9.8427,0,0,1-5.6194-1.7481L12.9231,307.73a13.9321,13.9321,0,0,1-5.9812-11.4384V47.0817a9.7767,9.7767,0,0,1,9.7666-9.7647l34.0872-.0234c4.8249,0,9.1179-2.2492,11.2046-5.87l.087.05.0136-.0231-.0891-.05C70.55,16.0142,85.7825,6.824,102.76,6.8175c16.9781.0065,32.2111,9.1967,40.7489,24.5837l-.096.0533.0141.0239.0943-.0544c2.0876,3.6205,6.38,5.87,11.2011,5.87l34.0934.0234a9.7756,9.7756,0,0,1,9.764,9.7647l.0007,1.4657.0627.6209c.2219,16.4987.2167,139.0311.1378,248.2017a14.1566,14.1566,0,0,1-6.2274,11.7228l-84.3751,57.1318A9.829,9.829,0,0,1,102.6606,367.9064ZM63.23,33.221a14.9318,14.9318,0,0,1-12.434,6.0726l-34.0872.0234a7.7746,7.7746,0,0,0-7.7673,7.7647v249.21a11.9314,11.9314,0,0,0,5.1222,9.7958l84.1182,58.4288a7.8876,7.8876,0,0,0,8.8741.0532l84.3756-57.1322a12.1588,12.1588,0,0,0,5.3488-10.0682c.0779-107.7645.084-228.5452-.1292-247.4861l-.0082-.003-.0628-.72-.001-2.0771a7.7736,7.7736,0,0,0-7.7647-7.7652l-34.0934-.0234a14.93,14.93,0,0,1-12.43-6.0726l-.0457.0254-.94-1.6616.0065-.0041C133.0539,17.3145,118.7078,8.8236,102.76,8.8175,86.8136,8.8236,72.4683,17.3136,64.21,31.5783l.0068.0042-.484.84-.0164.0283-.4413.7954Z" style="fill: #fff"/>
    <path id="fullLogo-3" data-name="fullLogo" d="M82.6,133.9444l-4.2447,6.1446H74.96a9.5219,9.5219,0,0,1,4.0107-5.1848A18.1374,18.1374,0,0,1,82.6,133.9444Z" style="fill: #b49a00"/>
    <path id="fullLogo-4" data-name="fullLogo" d="M21.842,224.0282l.0281,61.3763c.13,10.625,10.9918,17.1339,10.9918,17.1339l69.3549,44.9167,1.3476-.0165,52.3634-34.0749Z" style="fill: #b49a00;fill-rule: evenodd"/>
    <polygon id="fullLogo-5" data-name="fullLogo" points="149.238 232.088 183.338 207.56 183.357 148.584 105.145 202.412 149.238 232.088" style="fill: #b49a00;fill-rule: evenodd"/>
    <path id="fullLogo-6" data-name="fullLogo" d="M67.5756,61.0837A35.4539,35.4539,0,1,1,103.03,96.54,35.4568,35.4568,0,0,1,67.5756,61.0837Z" style="fill: #b49a00"/>
    <polygon id="fullLogo-7" data-name="fullLogo" points="73.452 61.082 73.479 59.566 73.614 58.045 73.804 56.555 74.048 55.09 74.373 53.652 74.779 52.245 75.24 50.862 75.784 49.508 76.381 48.205 77.031 46.903 77.735 45.658 78.494 44.463 79.334 43.298 80.201 42.159 81.123 41.1 82.127 40.071 83.13 39.069 84.215 38.147 85.327 37.251 86.492 36.44 87.685 35.652 88.933 34.945 90.206 34.268 91.508 33.672 92.863 33.158 94.219 32.672 95.628 32.29 97.065 31.937 98.502 31.693 99.993 31.502 101.484 31.369 103.003 31.342 104.522 31.369 106.04 31.476 107.531 31.666 108.995 31.885 110.432 32.21 111.868 32.562 113.251 32.994 114.607 33.51 115.934 34.053 117.237 34.678 118.509 35.355 119.732 36.088 120.897 36.872 122.036 37.712 123.146 38.635 124.176 39.585 125.179 40.587 126.129 41.645 127.023 42.755 127.836 43.892 128.623 45.113 129.326 46.362 129.978 47.635 130.548 48.964 131.063 50.345 131.524 51.783 131.877 53.218 132.172 54.74 132.392 56.255 132.528 57.831 132.607 59.458 132.58 61.082 132.554 62.709 132.473 64.284 132.31 65.827 132.066 67.345 131.767 68.811 131.389 70.272 130.927 71.682 130.412 73.04 129.816 74.367 129.167 75.668 128.459 76.918 127.676 78.111 126.861 79.274 125.966 80.387 125.044 81.444 124.043 82.449 123.011 83.424 121.927 84.347 120.788 85.184 119.622 85.998 118.429 86.729 117.156 87.434 115.88 88.058 114.551 88.627 113.197 89.143 111.814 89.576 110.404 89.955 108.968 90.283 107.503 90.525 106.04 90.685 104.522 90.796 103.003 90.824 101.484 90.796 99.993 90.685 98.502 90.498 97.065 90.225 95.628 89.905 94.219 89.494 92.863 89.035 91.508 88.491 90.206 87.896 88.933 87.243 87.685 86.541 86.492 85.753 85.327 84.913 84.215 84.046 83.13 83.098 82.127 82.121 81.123 81.092 80.201 80.006 79.334 78.895 78.494 77.73 77.735 76.512 77.031 75.262 76.381 73.988 75.784 72.661 75.24 71.303 74.779 69.921 74.373 68.511 74.048 67.073 73.804 65.611 73.614 64.119 73.479 62.628 73.452 61.082" style="fill: #fff"/>
    <path id="fullLogo-8" data-name="fullLogo" d="M103.003,91.64a30.5579,30.5579,0,0,1,0-61.1146,31.31,31.31,0,0,1,22.5869,9.297,28.6761,28.6761,0,0,1,7.8054,21.2931,29.5143,29.5143,0,0,1-8.3222,21.46A30.5719,30.5719,0,0,1,103.003,91.64Zm0-59.482a28.9268,28.9268,0,1,0,20.904,49.2749,27.9343,27.9343,0,0,0,7.8565-20.3345,26.7436,26.7436,0,0,0-7.3517-20.1457A29.6707,29.6707,0,0,0,103.003,32.158Z"/>
    <path id="fullLogo-9" data-name="fullLogo" d="M103.778,33.1032a10.3856,10.3856,0,0,1-2.33-1.2812l.5066-.64a9.7214,9.7214,0,0,0,2.1174,1.16Z"/>
    <path id="fullLogo-10" data-name="fullLogo" d="M83.6458,61.0986s-2.3855-4.09-4.4166-7.4793l.7-.42c2.0336,3.3938,4.4216,7.4876,4.4216,7.4876Z"/>
    <path id="fullLogo-11" data-name="fullLogo" d="M84.5379,41.8379l-.4814-.6594c1.3843-1.01,3.6608-1.476,6.8117-2.12.9241-.189,1.9223-.3932,2.9912-.63l.177.797c-1.0738.2384-2.0764.4435-3.0046.6333C87.982,40.4816,85.7785,40.9323,84.5379,41.8379Z"/>
    <path id="fullLogo-12" data-name="fullLogo" d="M94.8585,56.9294l-.79-.207c1.0738-4.0956,4.0438-10.0857,4.6955-10.2215l.412.1494-.3208.2561.2521.303A38.6835,38.6835,0,0,0,94.8585,56.9294Z"/>
    <polygon id="fullLogo-13" data-name="fullLogo" points="114.227 36.682 113.307 36.112 112.439 35.599 110.757 34.73 109.265 34.053 107.938 33.591 106.853 33.24 105.985 33.023 105.091 32.861 104.576 32.753 104.059 32.672 103.545 32.672 103.059 32.696 102.543 32.753 102.026 32.861 101.051 33.183 100.102 33.591 99.181 34.106 98.286 34.678 97.473 35.299 96.714 35.95 96.035 36.574 94.924 37.685 94.192 38.525 93.948 38.826 94.897 39.828 95.601 40.641 96.387 41.645 97.175 42.783 97.526 43.406 97.878 44.057 98.177 44.707 98.449 45.413 98.664 46.09 98.829 46.822 99.099 46.713 99.886 46.47 101.105 46.116 102.759 45.792 103.708 45.631 104.738 45.494 105.876 45.413 107.07 45.357 108.318 45.357 109.647 45.413 111.002 45.548 112.439 45.765 112.682 45.032 112.925 44.166 113.251 43.054 113.55 41.699 113.846 40.154 114.091 38.472 114.227 36.682"/>
    <path id="fullLogo-14" data-name="fullLogo" d="M98.76,46.9523l-.1889-.8418-.2129-.6682-.2706-.7009-.2962-.6444-.7-1.2675-.7826-1.1306L95.5263,40.7l-.7017-.809-1.0033-1.06.2966-.3657.7347-.8422,1.115-1.1165.6818-.6266.7615-.6529.8177-.6247.9013-.576.9253-.5179.9583-.4131.9831-.3251.5271-.1107.5245-.0579.4917-.0242.5193,0,.5317.0814.5195.1088.8916.1622.8737.2179,1.092.3534,1.3288.4617,1.5.6809,1.6859.8711.8729.5152.9715.6013-.1405,1.848-.2456,1.689-.2967,1.5484-.3,1.3581-.5707,1.9837-.27.8129-1.5161-.2286-1.35-.1344-1.3239-.0559H107.07l-1.1891.0562-1.136.0809-1.0244.1359-.9453.1606-1.6515.3241-1.211.3512-.7848.2431Zm-4.6859-8.1312.8913.9416.7075.8158.789,1.0075.7906,1.1425.3562.6312.3531.6521.3013.6555.2748.7118.217.6816.1419.6312.1667-.067.7938-.2462,1.2209-.3537,1.662-.3265.9511-.1615,1.0336-.137,1.144-.0816,1.1959-.0565,1.2524,0,1.3333.0564,1.36.1354,1.3623.2053.2179-.6564.2423-.8624.3261-1.1128.2976-1.3492.2953-1.5416.2442-1.6783.131-1.7261-.8712-.5393-.8665-.5116-1.6769-.8664-1.4876-.6755-1.3188-.4578-1.0838-.351-.8614-.2148-.888-.1614-.5171-.1084-.5121-.0793-.5.0011-.4814.0237-.51.056-.5076.1064-.9649.3193-.9417.4059-.9117.5106-.89.5686-.807.6167-.7548.6474-.6765.6216-1.1076,1.1089Z"/>
    <path id="fullLogo-15" data-name="fullLogo" d="M98.5149,47.3906l-.0881-.4976c-.4168-2.3628-2.0983-5.1136-4.7348-7.7457l-.2544-.2539.1873-.317c.24-.311,5.95-7.6016,11.5707-6.11.0349.0091.1021.021.1977.0388a24.7749,24.7749,0,0,1,9.0592,3.8362l.193.1276-.01.2311a33.691,33.691,0,0,1-1.8139,9.2074l-.1184.3188-.335-.059A26.7244,26.7244,0,0,0,98.9829,47.2ZM94.4959,38.8a16.767,16.767,0,0,1,4.6369,7.4748,27.58,27.58,0,0,1,13.0339-.9695,33.84,33.84,0,0,0,1.6415-8.41,23.8273,23.8273,0,0,0-8.5646-3.5874c-.1231-.0229-.2093-.04-.256-.0519C100.4664,32.0558,95.5885,37.4933,94.4959,38.8Z"/>
    <path id="fullLogo-16" data-name="fullLogo" d="M122.0954,38.107c-1.8159-.9195-5.4343-.98-6.9794-1.0059-.9023-.0151-.9563-.016-1.0982-.1607l.5828-.5716-.2914.2858.1017-.3917c.0928.0143.35.0158.7188.022,1.7369.029,5.3512.09,7.3345,1.0937Z"/>
    <path id="fullLogo-17" data-name="fullLogo" d="M119.819,55.8725l-.252-.3211-.4.0018a23.984,23.984,0,0,0-7.0484-9.4774l.5294-.6215c5.2742,4.4921,7.3446,9.5449,7.3338,10.0825Z"/>
    <path id="fullLogo-18" data-name="fullLogo" d="M130.8537,70.7425a6.2711,6.2711,0,0,0-2.24-2.0917l.3988-.7123a6.962,6.962,0,0,1,2.5838,2.4652Z"/>
    <polygon id="fullLogo-19" data-name="fullLogo" points="120.326 75.399 120.653 75.235 121.521 74.828 122.74 74.177 124.176 73.339 124.936 72.851 125.668 72.308 126.4 71.739 127.05 71.113 127.648 70.437 128.136 69.76 128.541 68.999 128.678 68.618 128.813 68.24 129.113 67.262 129.301 66.261 129.438 65.23 129.465 64.227 129.438 63.224 129.326 62.275 129.193 61.328 129.03 60.459 128.651 58.888 128.244 57.665 127.836 56.582 127.729 56.555 127.375 56.582 126.806 56.609 125.941 56.609 124.827 56.527 123.391 56.366 121.655 56.041 119.567 55.551 119.567 55.849 119.459 56.636 119.217 57.854 118.836 59.401 118.565 60.268 118.212 61.19 117.806 62.141 117.344 63.144 116.774 64.119 116.152 65.122 115.421 66.1 114.607 67.073 114.824 67.211 115.366 67.7 116.152 68.457 117.046 69.486 117.996 70.762 118.484 71.44 118.917 72.17 119.351 72.932 119.732 73.746 120.057 74.558 120.326 75.399"/>
    <path id="fullLogo-20" data-name="fullLogo" d="M120.2687,75.5338l-.3027-.9471-.3224-.8054-.3788-.8093-.43-.7551-.432-.7286-.4839-.6706-.9486-1.2751-.89-1.0227-.78-.7517-.54-.4868-.296-.1867.8835-1.0561.7284-.9737.6175-.9962.5689-.9732.4567-.9939.4058-.9493.3517-.9179.2682-.8617.38-1.5412.2419-1.2139.1065-.7815-.0009-.4049,2.2053.5171,1.7314.3237,1.4294.16,1.11.0824.8579,0,.9311-.0549.1713.0427.4256,1.13.4075,1.2256.3815,1.579.1638.8738.1339.9518.1123.95.0276,1.0117-.027,1.0083-.1374,1.0415-.19,1.0058-.3018.988-.2737.7639-.41.7728-.4956.6886-.6036.6827-.6552.6317-.74.5756-.7332.5441-.7648.4916-1.44.841-1.2224.6524Zm-5.5193-8.4833.1255.08.5551.4985.7883.76.9,1.0345.954,1.2818.4894.6789.4375.7372.4349.7632.3845.8211.3267.8168.2373.7417.2276-.1138.87-.4083,1.2148-.6485,1.4333-.837.756-.4858.7263-.5392.7308-.5677.6424-.62.5924-.67.4828-.67.3979-.7494.2665-.7467.298-.9736.1862-.9905.1358-1.0264.0262-.9932-.027-.9979-.1114-.94-.1329-.9454-.1621-.8648-.3783-1.5665-.4041-1.2143-.389-1.0331-.0445-.011-.3378.0257-.5726.0273-.8694,0-1.1206-.083-1.44-.1613-1.7425-.3256-1.9756-.4631v.1774l-.1083.8-.2438,1.2238-.3819,1.5509-.2718.873-.3551.927-.4081.955-.4622,1.0046-.5744.9836-.6235,1.0052-.7362.9846Z"/>
    <path id="fullLogo-21" data-name="fullLogo" d="M120.0532,75.9477l-.1212-.4405a18.3536,18.3536,0,0,0-5.4769-8.0643l.1836-.32-.3333-.3255a20.0575,20.0575,0,0,0,4.8539-11.2663l.0253-.5019.4861.1277c5.773,1.5172,8.0509,1.0331,8.0733,1.028l.3257-.0739.1391.3042c.1212.27,2.9464,6.6667.9875,11.9665-1.0545,4.2824-8.4065,7.2713-8.719,7.3964Zm-4.8444-8.9372a19.65,19.65,0,0,1,5.3768,7.8326c1.5526-.69,6.9991-3.3287,7.8315-6.701,1.6306-4.4179-.3192-9.8213-.8347-11.1085-.824.0923-3.1577.1687-7.65-.9665A20.715,20.715,0,0,1,115.2088,67.0105Z"/>
    <path id="fullLogo-22" data-name="fullLogo" d="M104.0266,68.4916q-.882,0-1.7976-.0318l.0292-.8158a54.9646,54.9646,0,0,0,12.234-.97l.1753.7974A55.5623,55.5623,0,0,1,104.0266,68.4916Z"/>
    <polygon id="fullLogo-23" data-name="fullLogo" points="102.19 68.105 100.699 66.693 99.425 65.366 98.34 64.173 97.418 63.063 96.659 62.033 96.035 61.109 95.522 60.295 95.141 59.537 94.87 58.915 94.679 58.344 94.545 57.854 94.464 57.479 94.464 56.907 94.489 56.69 93.649 57.287 92.782 57.831 91.888 58.316 90.993 58.752 90.099 59.13 89.203 59.458 87.55 60 86.112 60.379 84.974 60.649 84.242 60.783 83.998 60.866 83.753 62.221 83.592 63.552 83.511 64.825 83.511 66.043 83.563 67.211 83.646 68.295 83.808 69.326 83.971 70.272 84.35 71.902 84.73 73.147 85.001 73.934 85.136 74.206 86.653 74.828 90.072 76.185 91.969 76.888 93.678 77.485 95.032 77.891 95.495 78 95.792 78 96.413 77.242 97.039 76.455 98.204 74.802 99.289 73.147 100.266 71.575 101.051 70.167 101.648 69.053 102.19 68.105"/>
    <path id="fullLogo-24" data-name="fullLogo" d="M95.8372,78.0955h-.3426l-.4847-.1122-1.3592-.4069-1.7135-.5989-1.8987-.7036-3.42-1.3572-1.5517-.636-.15-.3046-.2761-.7976L84.2588,71.93l-.38-1.6364-.1642-.952L83.5519,68.31l-.0835-1.0916-.0529-1.17,0-1.2224.082-1.279.1607-1.3361.2566-1.4163.2972-.1006.7445-.1376,1.134-.27,1.4357-.378,1.6476-.54.893-.3268.889-.3768.89-.4337.8909-.4836.8619-.5407L94.61,56.488l-.0512.43.0007.561.0792.355.1331.4847.1887.5665.2679.6133.3788.754.5088.8054.6226.9222.7564,1.0259.9187,1.1058,1.0821,1.19,1.2723,1.325,1.5422,1.46-.5795,1.0133-.5951,1.1111-.786,1.4092L99.37,73.1976l-1.0869,1.6568L97.1172,76.51l-.6292.7918Zm-10.632-3.9638,1.4841.6084,3.4174,1.3559,1.895.7023,1.7077.597,1.35.404.4575.1082.23-.0021.593-.7234.625-.7862,1.1612-1.6486L99.21,73.0951l.9753-1.5707.7829-1.404.5956-1.112.5065-.8856-1.4367-1.36-1.2773-1.33-1.0867-1.1955-.9249-1.1134L96.5824,62.09l-.6264-.9279-.515-.8159-.3855-.7668-.2732-.6259-.1932-.5794-.1359-.4946-.0826-.38-.0022-.5925.0018-.0151-.6655.4728-.8716.5468-.9.4886-.8987.4376-.898.3807-.9005.33-1.656.5429-1.4434.38-1.1411.2711-.736.1351-.1774.0609-.2358,1.3-.1593,1.3252-.0813,1.2676,0,1.212.0526,1.1631.0824,1.0811.1614,1.0233.1629.9453.3774,1.6247.3784,1.2388.27.7832Z"/>
    <path id="fullLogo-25" data-name="fullLogo" d="M95.74,78.4114c-1.4582,0-8.5559-2.9094-10.7612-3.8284l-.1486-.062-.0663-.1466a23.5941,23.5941,0,0,1-1.1647-13.5939l.06-.2822.2863-.0371c.06-.0078,6.0461-.8152,10.2941-4.0942l.615.5045h0c.004,0-.6653,3.2423,7.6127,10.9346l.2236.2077-.136.2732A55.9369,55.9369,0,0,1,96.0985,78.27l-.09.1017-.1326.028A.6756.6756,0,0,1,95.74,78.4114ZM85.447,73.8935C89.8059,75.7057,94.61,77.5127,95.6,77.5991a54.3542,54.3542,0,0,0,6.0862-9.4055c-6.1776-5.7929-7.4257-9.17-7.6095-10.6963A25.3045,25.3045,0,0,1,84.34,61.2284,23.3606,23.3606,0,0,0,85.447,73.8935Z"/>
    <path id="fullLogo-26" data-name="fullLogo" d="M80.6256,77.4131l-.2528-.7763a12.3576,12.3576,0,0,0,4.3929-2.854l.581.5736A12.9529,12.9529,0,0,1,80.6256,77.4131Z"/>
    <polygon id="fullLogo-27" data-name="fullLogo" points="76.651 74.447 77.599 76.129 78.441 77.539 79.2 78.678 79.848 79.573 80.393 80.25 80.826 80.685 81.123 80.93 81.285 80.984 80.934 79.627 80.663 78.353 80.555 77.674 80.499 77.025 79.47 76.428 78.251 75.615 76.651 74.447"/>
    <path id="fullLogo-28" data-name="fullLogo" d="M81.4216,81.13l-.359-.1262-.2976-.2453-.44-.4412-.5512-.6844-.6512-.8991-.7612-1.1418-.8445-1.4142-1.1643-2.0663,1.9542,1.4264,1.2161.8111,1.067.6184.06.6986.1076.6717.27,1.27ZM76.95,74.7831l.7319,1.299.8408,1.4081.7566,1.1349.6461.8921.5415.6731.4262.4274.2528.2078-.3042-1.1745L80.57,78.3724l-.1093-.6834-.0522-.6066-.9863-.5718-1.2245-.8167Z"/>
    <path id="fullLogo-29" data-name="fullLogo" d="M81.3163,81.3835c-1.0311,0-3.5247-3.9446-5.0247-6.7434l.6072-.5175a30.1245,30.1245,0,0,0,3.789,2.54l.2037.1061.0152.2293a22.1769,22.1769,0,0,0,.77,3.87l.0971.3275-.3053.1533A.3342.3342,0,0,1,81.3163,81.3835ZM77.915,75.8752a29.0735,29.0735,0,0,0,2.6331,3.906A18.8206,18.8206,0,0,1,80.11,77.277C79.7681,77.0851,79.0079,76.6372,77.915,75.8752Z"/>
    <path id="fullLogo-30" data-name="fullLogo" d="M115.1627,84.6073l-.5706-.5838.2853.2919-.2865-.2908a27.0461,27.0461,0,0,0,5.348-8.7287l.7733.2616A27.7993,27.7993,0,0,1,115.1627,84.6073Z"/>
    <path id="fullLogo-31" data-name="fullLogo" d="M101.662,85.9614c-2.4516-1.1585-5.8439-7.4737-5.9871-7.742l.72-.3845c.9405,1.7614,3.7827,6.5222,5.6157,7.3884Z"/>
    <polygon id="fullLogo-32" data-name="fullLogo" points="84.269 41.589 84.134 41.265 83.918 40.503 83.835 39.989 83.808 39.45 83.835 38.903 83.998 38.391 82.316 40.016 80.853 41.617 79.579 43.161 78.494 44.651 77.573 46.116 76.759 47.527 76.108 48.853 75.567 50.158 75.132 51.35 74.779 52.491 74.482 53.574 74.265 54.549 73.886 56.255 73.56 57.585 74.102 56.801 74.7 55.985 75.458 55.118 75.919 54.686 76.381 54.278 76.868 53.926 77.384 53.627 77.925 53.409 78.467 53.298 79.01 53.275 79.552 53.409 79.498 52.842 79.498 52.245 79.524 51.621 79.579 50.997 79.687 50.318 79.822 49.643 80.013 48.938 80.256 48.205 80.555 47.445 80.88 46.689 81.285 45.874 81.747 45.059 82.291 44.219 82.886 43.352 83.537 42.483 84.269 41.589"/>
    <path id="fullLogo-33" data-name="fullLogo" d="M73.3447,58.0641l.4486-1.8315.5954-2.6795.2987-1.0877.3533-1.1433.4364-1.1965L76.02,48.817l.6532-1.3323.8173-1.4159.923-1.468,1.0886-1.4957L80.78,41.5563,82.246,39.952l1.958-1.892-.2743.86-.0263.5345.0269.53.0816.5039.2134.75.1541.3667-.7688.9386-.6478.8657-.5937.8635-.5418.8381-.459.8095-.4027.8105-.3231.7514-.2977.7575-.2418.7277-.1885.7-.1343.6692-.1068.6747-.054.6171-.0262.62,0,.5928.0666.6921-.6591-.1632-.53.0224-.5259.1093-.5253.2126-.504.2932-.4788.3463-.4547.4021-.4585.4305-.7521.8606-.592.81ZM83.7928,38.7222l-1.41,1.3626-1.4588,1.5964-1.2709,1.5406-1.0814,1.4858-.9176,1.46-.8124,1.4071-.6477,1.3211-.5391,1.2994-.4334,1.188L74.87,52.5187l-.2967,1.08-.5948,2.6769-.2035.8308.2488-.3595.5986-.8181.7638-.8737.4672-.4393.4641-.41.494-.3573.5243-.3044.5539-.2235.5574-.1161L79.02,53.18l.4247.1051-.0415-.4334-.0005-.6059.0266-.6287.0551-.6279.1083-.6852.1364-.6791.1915-.7116.2452-.7378.3-.765.3265-.7589.4073-.82.4643-.8188.5462-.8451.5974-.8689.6526-.8721.6988-.8533-.1136-.2718-.22-.7718-.0851-.5252-.0279-.55.0312-.5806Z"/>
    <path id="fullLogo-34" data-name="fullLogo" d="M73.9109,57.7939l-.74-.3313c.1547-.49.2874-1.1225.4411-1.8546.7972-3.798,2.1315-10.1546,10.11-17.5169l.6531.4582a4.3348,4.3348,0,0,0,.2662,2.8707l.1062.234-.1649.1974c-3.4524,4.1191-5.0082,7.9929-4.6241,11.5138l.07.6464-.6128-.2174C76.8646,52.8892,73.94,57.7448,73.9109,57.7939Zm9.482-18.2662c-6.9275,6.7529-8.2073,12.56-8.9571,16.1287,1.1156-1.3586,2.8573-2.9892,4.6644-2.77-.1922-3.5377,1.3861-7.3583,4.6986-11.3694A6.0723,6.0723,0,0,1,83.3929,39.5277Z"/>
    <polygon id="fullLogo-35" data-name="fullLogo" points="97.553 90.473 98.068 90.173 98.557 89.874 98.99 89.523 99.425 89.143 100.157 88.356 100.753 87.572 101.241 86.867 101.566 86.268 101.836 85.726 102.081 85.753 102.921 85.97 104.25 86.268 105.062 86.378 105.959 86.486 106.934 86.541 107.992 86.512 109.077 86.432 110.188 86.243 111.354 85.97 112.52 85.564 113.684 85.045 114.254 84.724 114.824 84.37 115.175 84.832 115.555 85.211 115.934 85.511 116.369 85.753 116.803 85.888 117.209 85.998 117.643 86.027 118.077 86.053 118.836 85.946 119.459 85.807 120.029 85.592 119.08 86.243 118.13 86.837 117.184 87.38 116.234 87.867 115.284 88.302 114.363 88.708 113.414 89.062 112.493 89.388 110.676 89.928 108.887 90.309 107.205 90.604 105.578 90.77 104.059 90.851 102.678 90.878 101.403 90.851 100.292 90.77 98.53 90.604 97.553 90.473"/>
    <path id="fullLogo-36" data-name="fullLogo" d="M102.68,90.9728l-1.28-.027-1.1159-.0811-1.7637-.1661L97.2648,90.53l.7558-.44.4866-.2982.4231-.3434.4318-.3779.7255-.78.5893-.7775.4861-.7014.319-.59.2989-.5978.3107.0343.8534.2191,1.3259.2968.8042.1089.8958.1077.9684.0543,1.05-.0287,1.08-.08,1.102-.1877,1.1609-.272,1.1564-.4035,1.1564-.5153.5622-.3173.64-.3976.4035.5308.3716.37.3711.2918.4223.2344.4156.127.4028.1086.8486.0525.74-.1071.6166-.1369,1.2947-.49-1.5995,1.0972-.9534.5965-.949.5447-.9543.4886-.9532.4368-.9231.4068-.9542.3561-.9225.3267-1.8212.5419-1.7964.3828-1.6854.295-1.6339.1669-1.5232.0812Zm-4.8391-.5574.7014.094,1.758.1655,1.109.0807,1.2708.0268,1.3769-.0271,1.5155-.0807,1.6225-.1656,1.6753-.2934,1.7856-.38,1.8092-.5385.9164-.3246.9476-.3536.9167-.4041.9482-.4344.9466-.4846.9419-.5407.9469-.5924.351-.2408-.5244.117-.7659.1092-.8876-.0549-.4246-.1126-.4372-.1358-.453-.2506-.392-.3076-.3884-.3868-.307-.4026-.4959.3082-.5737.3234-1.1719.5223-1.1735.4092-1.1762.276-1.1167.19-1.0934.0812-1.0627.0288-.9825-.0549-.9032-.1084-.8136-.1105L102.9,86.063l-.843-.2173-.1653-.0175-.2411.4821-.3259.602-.494.7136-.5979.7881-.7387.7937-.4416.387-.436.353Z"/>
    <path id="fullLogo-37" data-name="fullLogo" d="M102.9306,91.2965a35.7865,35.7865,0,0,1-5.1219-.3756l-1.678-.2167,1.2453-.5991a9.8248,9.8248,0,0,0,3.9761-4.31l-.0229-.0258.1562-.2691c.17-.274.4076-.21.8387-.0925,4.8139,1.3073,8.9432.8439,12.2732-1.3772l.3548-.2366.2209.3647c1.5029,2.4817,4.5569,1.1215,4.6861,1.0624l.4058.7042A29.5641,29.5641,0,0,1,102.9306,91.2965Zm-4.1637-1.0718a29.8652,29.8652,0,0,0,19.1936-3.7709,3.8346,3.8346,0,0,1-3.2519-1.524c-2.4754,1.5371-6.5917,2.8972-12.5985,1.2659l-.0384-.01A11.366,11.366,0,0,1,98.7669,90.2247Z"/>
    <path id="fullLogo-38" data-name="fullLogo" d="M128.2,56.771l-.6171-.5344c2.6908-3.1068,2.2126-7.6969,2.2075-7.7429l.8112-.0917C130.6243,48.604,131.1291,53.389,128.2,56.771Z"/>
    <path id="fullLogo-39" data-name="fullLogo" d="M148.8812,246.947,69.3529,193.3407a57.3835,57.3835,0,0,1-14.21,1.9116,33.6022,33.6022,0,0,0,7.7094-6.2936l-41.01-27.6429v47.0757l143.2841,96.2,7.6172-5.127s10.626-6.6411,10.626-17.267V222.91Z" style="fill-rule: evenodd"/>
    <path id="fullLogo-40" data-name="fullLogo" d="M153.0883,143.4155c10.167-2.8295,35.4483-17.6484,30.1136-45.5972a30.52,30.52,0,0,1-18.2056,23.1036s12.1876-11.7262,14.2772-24.39c1.2646-7.6644-.328-15.0869-2.8761-19.757-.1384,18.1584-13.9076,28.2445-13.9076,28.2445s13.9493-17.7666,4.2947-38.0313a41.3744,41.3744,0,0,0-8.1925-11.4745c9.2393,21.2371-3.2974,40.7115-3.2974,40.7115s6.6883-23.6343-2.2063-38.3586c-3.9157-6.4823-9.2843-12.4744-16.8076-15.4262,0,0,11.0731,8.69,11.0731,32.1313S136.0722,117.01,120.402,132.9741c-11.4216,11.6371-16.0787,20.34-17.6941,36.5977-.9044-19.7114-15.8153-25.6623-22.2969-24.42-5.8945,1.13-6.1068,5.27-5.014,6.1556A5.5838,5.5838,0,0,1,70.4,147.0212c-1.0311-4.3522,3.8389-15.2443,10.6717-18.9578C67.8343,113.143,58.704,95.6567,58.704,74.5714,58.704,51.13,69.7776,42.44,69.7776,42.44,62.2561,45.3911,56.8985,51.387,52.97,57.8663c-9.5016,15.6713-3.6037,36.2788-3.6037,36.2788S37.4572,77.3179,47.4669,55.5134a40.53,40.53,0,0,0-9.5338,14.6717c-6.8746,18.9,5.6349,34.8341,5.6349,34.8341S29.8006,94.9331,29.6605,76.7747a32.0454,32.0454,0,0,0-2.8756,19.757c2.089,12.664,14.2767,24.39,14.2767,24.39A30.5193,30.5193,0,0,1,22.857,97.8183C17.5223,125.7671,42.8031,140.586,52.97,143.4155c-11.5617,1.078-20.6164-5.9328-20.6136-5.9277,8.06,18.0871,23.6993,17.0322,41.6,23.0374a44.0392,44.0392,0,0,1,11.4818,5.6853A66.7794,66.7794,0,0,1,64.646,191.1232c12.1471-2.1856,22.2495-8.06,28.9645-12.9865a2.2575,2.2575,0,0,1,.9534-.2109,2.1469,2.1469,0,0,1,1.7616.8376l.0206.0037c3.0869,5.9636,3.7226,10.8114,5.6369,10.8114,1.4909,0,2.5581-5.9695,7.373-12.8286l5.4985,4.1777a3.5333,3.5333,0,0,0,4.0546.1076l17.5564-11.7892a.8162.8162,0,0,0-.5006-1.4947l-17.3435-.4092a49.217,49.217,0,0,1,13.4814-6.8169c17.8992-6.0052,33.5383-4.95,41.5991-23.0374C173.7041,137.4827,164.6489,144.4935,153.0883,143.4155Z" style="fill: #b49a00"/>
    <path id="fullLogo-41" data-name="fullLogo" d="M34.2686,184.6826l3.2071,2.14a43.1875,43.1875,0,0,1,4.3418,3.1635,7.694,7.694,0,0,1,1.8408,2.5943,9.4929,9.4929,0,0,1,.6894,3.9658q-.016,2.187-.5273,2.6016t-1.998-.4258a8.525,8.525,0,0,1,1.8,2.167,6.029,6.029,0,0,1,.5683,1.4887,20.536,20.536,0,0,1,.0918,2.8462l-.0371,4.94-4.209-2.8076.0469-6.2247a5.8907,5.8907,0,0,0-.2061-2.01,3.083,3.083,0,0,0-1.1552-1.13l-.0635,8.4463L34.127,203.415Zm4.5069,6.2276-.0313,4.1655a2.2362,2.2362,0,0,0,1.0723.4888q.309-.0213.3184-1.2588l.0078-1.03a2.5693,2.5693,0,0,0-.2871-1.3657A3.6162,3.6162,0,0,0,38.7755,190.91Z" style="fill: #fff"/>
    <path id="fullLogo-42" data-name="fullLogo" d="M46.3331,192.7305l7.5566,5.04-.0283,3.7485L50.836,199.502l-.0273,3.5522,2.832,1.8887-.0264,3.5635-2.832-1.8887-.0312,4.1191,3.3261,2.2188-.0283,3.7485-7.8574-5.2412Z" style="fill: #fff"/>
    <path id="fullLogo-43" data-name="fullLogo" d="M67.004,206.52l-2.4482,17.1939-6.8829-4.5918-2.4775-20.479,4.7793,3.188q.7749,8.296,1.0908,13.8911.3912-5.18.8184-9.1172l.3408-3.2734Z" style="fill: #fff"/>
    <path id="fullLogo-44" data-name="fullLogo" d="M78.4854,225.2026q-.0219,2.8244-.1533,3.9151a2.38,2.38,0,0,1-.792,1.63,2.0565,2.0565,0,0,1-1.77.3183,7.4886,7.4886,0,0,1-2.5869-1.2031,13.2162,13.2162,0,0,1-2.51-2.168,10.82,10.82,0,0,1-1.7812-2.67,8.261,8.261,0,0,1-.791-2.68q-.12-1.2437-.1-4.1372l.0244-3.2041q.0206-2.8227.1543-3.915a2.3783,2.3783,0,0,1,.79-1.63,2.061,2.061,0,0,1,1.7725-.3184,7.4985,7.4985,0,0,1,2.5879,1.2032,13.2356,13.2356,0,0,1,2.5088,2.1679,10.88,10.88,0,0,1,1.7822,2.6709,8.2886,8.2886,0,0,1,.79,2.6787q.12,1.2444.0987,4.1363Zm-4.4843-9.1782a7.416,7.416,0,0,0-.1221-1.7622,1.3023,1.3023,0,0,0-.5527-.7339q-.3546-.2373-.545-.0678a3.42,3.42,0,0,0-.2011,1.6157l-.0664,8.7475a10.532,10.532,0,0,0,.1084,2.0957,1.2971,1.2971,0,0,0,.5722.7657q.4629.309.5957-.045a8.4717,8.4717,0,0,0,.1455-2.0078Z" style="fill: #fff"/>
    <path id="fullLogo-45" data-name="fullLogo" d="M85.004,218.5269l-.1133,14.9843,2.7559,1.8379-.0283,3.7491-7.2872-4.8614.1416-18.7329Z" style="fill: #fff"/>
    <path id="fullLogo-46" data-name="fullLogo" d="M99.629,228.2827l-.0947,12.52a21.2281,21.2281,0,0,1-.1514,2.9043,1.9511,1.9511,0,0,1-.7783,1.2607,1.9882,1.9882,0,0,1-1.6836.26,7.4933,7.4933,0,0,1-2.4522-1.1651,13.9786,13.9786,0,0,1-2.7519-2.3926,10.9117,10.9117,0,0,1-1.7764-2.6386,7.4417,7.4417,0,0,1-.6846-2.3477q-.1-1.059-.0771-4.2305l.084-11.0839,4.5322,3.0234-.1064,14.0459a6.999,6.999,0,0,0,.1123,1.6494,1.1776,1.1776,0,0,0,.497.6758c.2871.1914.4737.1894.5577-.0068a6.3418,6.3418,0,0,0,.1377-1.6924l.1044-13.8037Z" style="fill: #fff"/>
    <path id="fullLogo-47" data-name="fullLogo" d="M111.0538,235.9038l-.0283,3.749-2.6914-1.7959-.1133,14.9844-4.5313-3.0234.1133-14.9834-2.6806-1.7881.0283-3.7481Z" style="fill: #fff"/>
    <path id="fullLogo-48" data-name="fullLogo" d="M117.1261,239.9546l-.1416,18.7324-4.5313-3.0234.1416-18.7324Z" style="fill: #fff"/>
    <path id="fullLogo-49" data-name="fullLogo" d="M129.4454,259.1968q-.0219,2.8227-.1533,3.915a2.3719,2.3719,0,0,1-.792,1.6289,2.0545,2.0545,0,0,1-1.77.3194,7.5113,7.5113,0,0,1-2.5879-1.2032,13.2794,13.2794,0,0,1-2.51-2.1679,10.8632,10.8632,0,0,1-1.7812-2.6709,8.2741,8.2741,0,0,1-.7911-2.6787q-.12-1.2437-.0986-4.1368l.0244-3.205q.0206-2.8228.1533-3.9151a2.3751,2.3751,0,0,1,.7911-1.6289,2.0567,2.0567,0,0,1,1.7724-.3183,7.4832,7.4832,0,0,1,2.5869,1.2021,13.2429,13.2429,0,0,1,2.5088,2.169,10.8356,10.8356,0,0,1,1.7822,2.6709,8.2583,8.2583,0,0,1,.79,2.6777q.12,1.2452.0986,4.1367Zm-4.4844-9.1787a7.4094,7.4094,0,0,0-.122-1.7617,1.2983,1.2983,0,0,0-.5518-.7344c-.2363-.1572-.4189-.1807-.5459-.0674a3.4155,3.4155,0,0,0-.2012,1.6152l-.0664,8.7481a10.6289,10.6289,0,0,0,.1084,2.0957,1.304,1.304,0,0,0,.5723.7656q.4644.3091.5967-.0449a8.5554,8.5554,0,0,0,.1445-2.0078Z" style="fill: #fff"/>
    <path id="fullLogo-50" data-name="fullLogo" d="M141.5518,256.2476,141.41,274.98l-3.9716-2.6494-2.294-10.0879-.0644,8.5156-3.7891-2.5283.1416-18.7324,3.7891,2.5283,2.4775,10.1289.0635-8.4346Z" style="fill: #fff"/>
    <path id="fullLogo-51" data-name="fullLogo" d="M144.01,257.8882l7.6748,5.1191-.0284,3.7481-3.1435-2.0957-.0274,3.5517,2.7989,1.8662-.0264,3.5645-2.7988-1.8672-.06,7.8682-4.5312-3.0235Z" style="fill: #b49a00"/>
    <path id="fullLogo-52" data-name="fullLogo" d="M163.81,279.2935l-4.5323-3.0235.0244-3.2558a7.4338,7.4338,0,0,0-.1318-1.8692,1.49,1.49,0,0,0-.6377-.7793q-.5595-.3735-.7129-.0449a5.728,5.728,0,0,0-.165,1.75l-.0664,8.7a7.7353,7.7353,0,0,0,.1387,1.8838,1.5468,1.5468,0,0,0,.6738.8682q.5054.3369.666.0244a6.0715,6.0715,0,0,0,.17-1.8565l.0176-2.3545,4.5322,3.0225-.0058.7305a12.471,12.471,0,0,1-.4131,3.87,1.7035,1.7035,0,0,1-1.7061,1.0049,5.8625,5.8625,0,0,1-3.23-1.2354,13.9831,13.9831,0,0,1-3.2774-2.9648,8.7643,8.7643,0,0,1-1.6943-3.2881,18.3773,18.3773,0,0,1-.39-4.4043l.042-5.4727a23.7834,23.7834,0,0,1,.1514-2.9521,1.9615,1.9615,0,0,1,2.5722-1.7256,7.4354,7.4354,0,0,1,2.6143,1.2031,13.5549,13.5549,0,0,1,3.2979,3.0352,9.3817,9.3817,0,0,1,1.6953,3.2168,16.3865,16.3865,0,0,1,.3808,4.1367Z" style="fill: #b49a00"/>
    <path id="fullLogo-53" data-name="fullLogo" d="M80.3735,343.6981l115.515-80.8843v6.1033l-111.2813,77.92Zm-4.7641-3.5319,120.2791-84.22v-6.1033L71.3757,337.0274Zm-8.9978-6.6707,129.2769-90.5209v-6.1033L62.3777,330.3567Zm-13.232-9.81,4.2338,3.1388,138.2751-96.8211V223.9Z" style="fill: #fff;opacity: 0.3"/>
    <path id="fullLogo-54" data-name="fullLogo" d="M13.1277,306.7582l-2.8672-4.0957L192.9314,174.7552l2.8672,4.0957ZM195.7986,191.822l-2.8672-4.0957L10.2605,315.6336l2.8672,4.0957Zm0-38.9137-2.8672-4.0957L10.2605,276.72l2.8672,4.0957Zm0,12.9711-2.8672-4.0957L10.2605,289.6914l2.8672,4.0957Z" style="fill: #fff;opacity: 0.3"/>
    <path id="fullLogo-55" data-name="fullLogo" d="M21.5992,223.5478l.5085,61.8567C22.2376,296.03,33.1,302.5384,33.1,302.5384L102.2561,347.46l1.3476-.0164,52.5617-34.08Z" style="fill: none"/>
    <path id="fullLogo-56" data-name="fullLogo" d="M104.9462,202.2837l78.681-53.96L183.6084,207.3,149.04,231.96ZM21.5537,223.5932l.0258,62.04c.13,10.625,10.9918,17.134,10.9918,17.134l70.6433,45.6283,1.3476-.0165,51.075-34.7866Z" style="fill: none"/>
    <path id="fullLogo-57" data-name="fullLogo" d="M102.5176,374.68a16.565,16.565,0,0,1-9.4981-2.9551L8.9,313.2964A20.7362,20.7362,0,0,1,0,296.2729V47.064A16.5831,16.5831,0,0,1,16.5645,30.5l34.0869-.0234c2.3115,0,4.44-.98,5.3-2.44C65.68,10.51,83.126.0142,102.5977,0c19.5136.0142,36.96,10.5093,46.71,28.0752.8369,1.42,2.9658,2.4009,5.2744,2.4009l34.0938.0234A16.5818,16.5818,0,0,1,205.2373,47.064v.1235c.0439.6279.0527,1.3359.0635,2.1387.0185,1.5185.0351,3.7456.0508,6.5932.0312,5.6709.0556,15.814.0742,25.72.0351,18.2706.0556,43.47.06,74.898.0087,56.4805-.0313,118.5166-.0469,140.8184a20.9524,20.9524,0,0,1-9.2149,17.35l-84.375,57.1318A16.5646,16.5646,0,0,1,102.5176,374.68ZM63.3193,34.2451a15.8812,15.8812,0,0,1-12.665,5.8306l-34.0869.0234A6.9738,6.9738,0,0,0,9.6,47.064V296.2729a11.1289,11.1289,0,0,0,4.7793,9.1387L98.4961,363.84a7.0946,7.0946,0,0,0,7.9687.0489l84.377-57.1329a11.3615,11.3615,0,0,0,4.9971-9.4062c.0771-106.7578.084-226.2949-.1231-246.9243l-.0146-.0049-.0625-1.2788-.001-2.0772a6.9734,6.9734,0,0,0-6.9648-6.9658l-34.0938-.0234a15.884,15.884,0,0,1-12.6611-5.83l-.126.07-.8389-1.5112-.8691-1.5083C131.9141,17.6826,118.0254,9.6055,102.6172,9.6c-15.4043.0059-29.291,8.0816-37.4619,21.6924,0,0-.8838,1.5342-.8907,1.5454l-.8193,1.4775Z"/>
  </g>
</svg>
